<?xml version="1.0" encoding="utf-8"?>
<!-- Generator: Adobe Illustrator 16.0.0, SVG Export Plug-In . SVG Version: 6.00 Build 0)  -->
<!DOCTYPE svg PUBLIC "-//W3C//DTD SVG 1.1//EN" "http://www.w3.org/Graphics/SVG/1.1/DTD/svg11.dtd">
<svg version="1.1" id="Layer_1" xmlns="http://www.w3.org/2000/svg" xmlns:xlink="http://www.w3.org/1999/xlink" x="0px" y="0px"
	 width="1021.154px" height="288.128px" viewBox="0 0 1021.154 288.128" enable-background="new 0 0 1021.154 288.128"
	 xml:space="preserve">
<g>
	<path fill="#999999" d="M331.405,77.529V65.174c0-0.365-0.296-0.661-0.662-0.661s-0.662,0.296-0.662,0.661v12.355
		c0,0.115,0.037,0.219,0.089,0.313l-13.99,7.631v202.655h29.125V85.473l-13.989-7.63C331.367,77.748,331.405,77.645,331.405,77.529z
		"/>
	<path fill="#999999" d="M946.514,168.611v7.766h-3.089v-7.832h-5.075v-5.848c0-4.569-5.729-8.274-12.797-8.274
		s-12.797,3.705-12.797,8.274v5.848h-5.075v7.832h-3.089v-7.766h-1.544v119.517h45.01V168.611H946.514z"/>
	<polygon fill="#999999" points="228.643,152.604 222.52,152.604 222.52,147.439 200.346,147.439 200.346,152.604 194.223,152.604 
		194.223,157.767 185.507,157.767 185.507,288.128 237.358,288.128 237.358,157.767 228.643,157.767 	"/>
	<path fill="#999999" d="M756.849,152.604h-6.123v-5.164h-11.087v-40.396c0,0,0-1.352,0-7.53c-29.114,0-34.647,7.53-34.647,7.53
		h-22.65v181.085h31.372h25.925h25.926V157.767h-8.716V152.604z"/>
	<path fill="#999999" d="M602.743,80.31h-6.123v-5.164h-0.076l-10.387-5.242V32.878c0-0.366-0.296-0.661-0.662-0.661
		s-0.662,0.295-0.662,0.661v37.025l-10.387,5.242v5.164h-6.123v5.163v202.655h53.064V85.473h-18.644V80.31z"/>
	<path fill="#999999" d="M422.902,99.513c0,6.179,0,7.53,0,7.53v181.085H480.2V107.043h-22.65
		C457.549,107.043,452.017,99.513,422.902,99.513z"/>
</g>
<polygon fill="#666666" points="591.663,114.543 569.309,114.543 569.309,130.279 563.435,130.279 563.435,288.128 597.537,288.128 
	597.537,130.279 591.663,130.279 "/>
<polygon fill="#666666" points="472.205,87.552 448.802,87.552 448.802,105.549 439.921,105.549 439.921,288.128 478.923,288.128 
	478.923,105.549 472.205,105.549 "/>
<polygon fill="#666666" points="345.987,135.426 322.584,135.426 322.584,149.412 313.703,149.412 313.703,288.128 352.705,288.128 
	352.705,149.412 345.987,149.412 "/>
<polygon fill="#666666" points="836.097,105.378 813.742,105.378 813.742,121.882 807.868,121.882 807.868,288.128 841.97,288.128 
	841.97,121.882 836.097,121.882 "/>
<rect x="107.795" y="146.829" fill="#666666" width="34.671" height="141.299"/>
<rect x="152.723" y="178.426" fill="#666666" width="34.672" height="109.702"/>
<rect x="141.723" y="191.645" fill="#666666" width="11.599" height="96.483"/>
<polygon fill="#666666" points="60.266,179.61 60.266,168.531 34.263,168.531 34.263,179.61 29.929,179.61 29.929,288.128 
	64.6,288.128 64.6,179.61 "/>
<polygon fill="#666666" points="730.785,190.238 730.785,172.482 700.628,172.482 700.628,190.238 700.628,192.896 700.628,288.128 
	747.142,288.128 747.142,190.238 "/>
<polygon fill="#666666" points="235.934,168.999 235.934,167.992 229.867,167.992 229.867,155.73 215.999,155.73 215.999,167.992 
	209.931,167.992 209.931,168.999 205.597,168.999 205.597,288.128 240.268,288.128 240.268,168.999 "/>
<polygon points="798.934,151.656 797.194,142.184 793.573,142.184 792.149,133.155 789.174,133.155 788.15,125.042 785.89,125.042 
	782.949,116.928 781.063,116.928 777.981,93.73 777.946,93.73 774.865,116.928 772.979,116.928 770.037,125.042 767.777,125.042 
	766.754,133.155 763.779,133.155 762.354,142.184 758.733,142.184 756.993,151.656 752.538,129.727 752.538,152.696 
	752.538,288.128 803.39,288.128 803.39,152.696 803.39,129.727 "/>
<polygon points="191.728,176.221 191.728,167.809 188.261,167.809 188.261,159.396 186.094,159.396 186.094,153.934 
	178.871,147.368 178.871,159.396 176.704,159.396 176.704,167.809 173.237,167.809 173.237,176.221 170.059,176.221 
	170.059,288.128 194.907,288.128 194.907,176.221 "/>
<polygon points="147.667,243.811 147.667,255.026 142.755,255.026 142.755,243.811 126.575,243.811 126.575,288.128 
	142.321,288.128 142.755,288.128 147.667,288.128 148.101,288.128 158.357,288.128 158.357,243.811 "/>
<polygon points="74.135,243.811 74.135,227.943 14.76,227.943 14.76,243.811 8.692,243.811 8.692,288.128 80.202,288.128 
	80.202,243.811 "/>
<rect x="642.601" y="240.523" width="16.613" height="47.604"/>
<polygon points="556.79,244.393 556.79,213.616 532.23,213.616 532.23,288.128 556.79,288.128 563.868,288.128 563.868,244.393 "/>
<polygon points="584.382,206.776 584.382,200.943 581.059,200.943 581.059,195.109 578.604,195.109 578.604,189.275 
	572.825,189.275 572.825,195.109 570.369,195.109 570.369,200.943 567.046,200.943 567.046,206.776 563.435,206.776 
	563.435,288.128 587.994,288.128 587.994,206.776 "/>
<path fill="#666666" d="M391.909,138.889c0-0.452-0.389-0.821-0.867-0.821c-0.477,0-0.867,0.369-0.867,0.821v19.24h-11.073
	l-5.587,13.132v116.867h18.394V161.721l0,0V138.889z"/>
<polygon points="463.321,216.36 463.321,245.504 458.554,245.504 458.554,229.491 440.423,229.491 440.423,245.504 440.351,245.504 
	440.351,257.387 432.911,257.387 432.911,288.128 440.351,288.128 440.423,288.128 478.923,288.128 478.923,247.103 
	478.923,245.504 478.923,216.36 "/>
<polygon points="598.684,216.36 598.684,245.504 593.917,245.504 593.917,229.896 575.786,229.896 575.786,245.504 575.714,245.504 
	575.714,288.128 614.286,288.128 614.286,247.103 614.286,245.504 614.286,216.36 "/>
<polygon points="739.464,239.725 739.464,200.575 732.782,200.575 732.782,192.734 717.289,192.734 717.289,200.575 
	717.289,201.054 717.289,239.725 712.521,239.725 712.521,288.128 752.899,288.128 752.899,239.725 "/>
<polygon fill="#666666" points="894.896,169.676 894.896,145.189 864.739,145.189 864.739,169.676 864.739,172.891 864.739,288.128 
	911.252,288.128 911.252,169.676 "/>
<polygon points="1002.663,253.266 1002.663,245.546 995.187,245.546 995.187,242.442 990.122,242.442 990.122,237.082 
	986.388,237.082 986.388,242.442 984.438,242.442 984.438,245.546 984.438,253.266 976.097,253.266 976.097,288.128 
	1008.692,288.128 1008.692,253.266 "/>
<polygon points="970.246,173.604 970.246,170.45 949.082,170.45 949.082,173.604 943.231,173.604 943.231,288.128 976.097,288.128 
	976.097,173.604 "/>
<polygon points="371.442,231.175 371.442,245.504 360.174,245.504 360.174,222.147 341.538,222.147 341.538,245.504 335.47,245.504 
	335.47,288.128 390.078,288.128 390.078,245.504 390.078,231.175 "/>
<polygon points="420.849,201.168 420.849,186.071 417.526,186.071 417.526,180.087 415.07,180.087 415.07,175.334 407.991,175.334 
	407.991,180.087 405.535,180.087 405.535,186.071 402.212,186.071 402.212,201.168 390.078,201.168 390.078,288.128 
	432.983,288.128 432.983,201.168 "/>
<polygon points="100.022,106.795 100.022,149.009 90.777,149.009 90.777,164.688 84.825,164.688 84.825,176.514 80.202,176.514 
	80.202,288.128 126.575,288.128 126.575,179.497 126.575,176.514 126.575,164.688 126.575,149.009 126.575,93.663 "/>
<path d="M315.39,176.221v-8.412h-3.467v-8.412h-1.734v-29.1c0-0.452-0.39-0.82-0.867-0.82c-0.478,0-0.867,0.368-0.867,0.82v18.254
	l-5.922,5.383v5.463h-2.167v8.412h-3.467v8.412h-3.179v111.907h24.848V176.221H315.39z"/>
<path d="M704.287,156.729V93.125h-6.501V55.373h-6.501V25.418c0-0.452-0.389-0.821-0.867-0.821s-0.867,0.369-0.867,0.821v29.955
	h-7.368V25.418c0-0.452-0.389-0.821-0.867-0.821s-0.867,0.369-0.867,0.821v29.955h-6.5v37.752h-6.501v63.604h-8.234v131.398h53.307
	V156.729H704.287z"/>
<polygon points="239.257,217.549 239.257,205.17 226.94,197.988 214.623,205.17 214.409,205.17 214.409,217.549 158.357,217.549 
	158.357,288.128 335.47,288.128 335.47,217.549 "/>
<polygon points="921.85,217.549 921.85,205.17 921.637,205.17 909.319,197.988 897.002,205.17 897.002,217.549 860.742,217.549 
	860.742,179.63 802.739,179.63 802.739,217.549 800.789,217.549 800.789,288.128 943.231,288.128 943.231,217.549 "/>
<polygon points="639.278,128.005 639.278,120.952 636.569,120.952 636.569,116.054 633.536,116.054 633.536,112.181 
	630.394,112.181 630.394,108.309 628.552,108.309 628.552,104.436 625.362,86.594 622.268,104.436 622.268,108.309 620.426,108.309 
	620.426,112.181 617.284,112.181 617.284,116.054 614.25,116.054 614.25,120.952 611.541,120.952 611.541,128.005 607.207,128.005 
	607.207,288.128 643.612,288.128 643.612,128.005 "/>
<polygon points="278.984,167.466 278.984,162.009 276.276,162.009 276.276,158.219 273.242,158.219 273.242,155.223 270.1,155.223 
	270.1,152.227 268.258,152.227 268.258,149.229 265.069,135.426 261.974,149.229 261.974,152.227 260.132,152.227 260.132,155.223 
	256.99,155.223 256.99,158.219 253.956,158.219 253.956,162.009 251.248,162.009 251.248,167.466 246.914,167.466 246.914,288.128 
	283.318,288.128 283.318,167.466 "/>
<path d="M520.454,54.997h-34.17V19.194c0-0.452-0.417-0.82-0.93-0.82s-0.93,0.368-0.93,0.82v35.803h-3.643V14.271
	c0-0.452-0.417-0.821-0.93-0.821s-0.93,0.369-0.93,0.821v44.522l0.001,0.003v229.332h53.307V68.129L520.454,54.997z"/>
<path fill="#1A1A1A" d="M844.337,239.338v-11.148H845c0-12.455-12.325-22.551-27.528-22.551c-15.203,0-27.528,10.096-27.528,22.551
	h0.664v11.148h-6.965v48.79h67.66v-48.79H844.337z"/>
<polygon fill="#1A1A1A" points="271.574,256.734 271.574,237.232 243.349,237.232 243.349,256.734 243.349,257.586 243.349,288.128 
	286.884,288.128 286.884,256.734 "/>
<polygon fill="#1A1A1A" points="517.046,213.716 517.046,242.229 500.689,242.229 500.689,225.335 472.463,225.335 472.463,249.396 
	457.154,249.396 457.154,288.128 500.689,288.128 547.203,288.128 547.203,243.475 547.203,242.229 547.203,213.716 "/>
<path fill="#1A1A1A" d="M227.629,229.444c0,3.012,0,3.67,0,3.67v16.817h-9.583l-12.817-25.289l-12.817,25.289v38.196h52.968v-37.852
	v-0.345v-16.817h0.006C245.387,233.114,242.551,229.444,227.629,229.444z"/>
<polygon fill="#1A1A1A" points="744.321,219.385 737.446,232.951 737.296,232.951 737.296,240.87 720.81,240.87 720.81,236.119 
	683.673,236.119 683.673,232.951 677.894,222.919 674.763,222.919 674.763,215.851 660.796,215.851 660.796,222.919 
	657.666,222.919 651.886,232.951 628.287,232.951 622.507,222.919 619.377,222.919 619.377,215.851 605.41,215.851 605.41,222.919 
	602.279,222.919 596.5,232.951 596.5,242.58 577.035,242.58 577.035,288.128 596.5,288.128 596.5,288.128 683.654,288.128 
	683.673,288.128 737.296,288.128 751.348,288.128 751.348,232.951 751.197,232.951 "/>
<polygon fill="#1A1A1A" points="162.692,225.42 158.604,225.42 158.604,221.897 154.516,221.897 154.516,228.942 152.127,228.942 
	152.127,221.897 148.04,221.897 148.04,225.42 143.952,225.42 143.952,228.942 129.745,228.942 129.745,288.128 176.899,288.128 
	176.899,228.942 162.692,228.942 "/>
<polygon fill="#1A1A1A" points="949.399,219.763 944.942,219.763 944.942,215.922 940.485,215.922 940.485,223.603 937.882,223.603 
	937.882,215.922 933.425,215.922 933.425,219.763 928.968,219.763 928.968,223.603 913.479,223.603 913.479,288.128 
	964.889,288.128 964.889,223.603 949.399,223.603 "/>
<polygon fill="#1A1A1A" points="115.373,246.57 102.574,246.57 102.574,244.774 80.986,244.774 80.986,246.57 77.159,246.57 
	77.159,250.063 73.117,250.063 69.81,250.063 69.81,245.718 63.839,245.718 63.839,241.372 56.398,241.372 56.398,237.74 53,237.74 
	53,234.107 28.81,234.107 28.81,237.74 25.411,237.74 25.411,241.372 17.97,241.372 17.97,245.718 12,245.718 12,250.063 
	8.692,250.063 8.692,288.128 73.117,288.128 132.03,288.128 132.03,250.063 115.373,250.063 "/>
<polygon fill="#1A1A1A" points="444.441,253.936 444.441,246.707 439.8,239.176 437.286,239.176 437.286,233.869 426.068,233.869 
	426.068,239.176 423.555,239.176 418.913,246.707 399.96,246.707 395.318,239.176 392.804,239.176 392.804,233.869 381.587,233.869 
	381.587,239.176 379.073,239.176 374.432,246.707 374.432,249.085 373.207,249.085 363.228,238.211 353.25,249.085 344.606,249.085 
	344.606,252.651 331.366,252.651 331.366,246.707 331.246,246.707 325.724,236.522 320.202,246.707 320.081,246.707 
	320.081,288.128 331.366,288.128 374.432,288.128 374.446,288.128 444.441,288.128 460.074,288.128 460.074,253.936 "/>
</svg>
