<?xml version="1.0" encoding="utf-8"?>
<!-- Generator: Adobe Illustrator 16.0.0, SVG Export Plug-In . SVG Version: 6.00 Build 0)  -->
<!DOCTYPE svg PUBLIC "-//W3C//DTD SVG 1.1//EN" "http://www.w3.org/Graphics/SVG/1.1/DTD/svg11.dtd">
<svg version="1.1" id="Layer_1" xmlns="http://www.w3.org/2000/svg" xmlns:xlink="http://www.w3.org/1999/xlink" x="0px" y="0px"
	 width="114.667px" height="114.803px" viewBox="0 0 114.667 114.803" enable-background="new 0 0 114.667 114.803"
	 xml:space="preserve">
<g>
	<linearGradient id="SVGID_1_" gradientUnits="userSpaceOnUse" x1="-209.4219" y1="-54.7158" x2="427.0258" y2="170.2909">
		<stop  offset="0" style="stop-color:#176D89"/>
		<stop  offset="0.2318" style="stop-color:#1CA5B8"/>
		<stop  offset="0.3939" style="stop-color:#1CA187"/>
		<stop  offset="0.5168" style="stop-color:#25A174"/>
		<stop  offset="0.6006" style="stop-color:#99CB48"/>
		<stop  offset="0.7235" style="stop-color:#B9D13E"/>
		<stop  offset="0.8073" style="stop-color:#F4B720"/>
		<stop  offset="0.8687" style="stop-color:#F77238"/>
		<stop  offset="0.9367" style="stop-color:#F34256"/>
	</linearGradient>
	<path fill="url(#SVGID_1_)" d="M8.189,56.663c2.837-24.712,23.872-43.971,49.333-43.971c27.387,0,49.668,22.281,49.668,49.668
		c0,1.608,1.309,2.916,2.916,2.916s2.916-1.308,2.916-2.916c0-30.603-24.897-55.5-55.5-55.5c-28.563,0-52.148,21.69-55.167,49.464
		c0.793-0.341,1.665-0.531,2.581-0.531C6.12,55.792,7.229,56.113,8.189,56.663z"/>
	<g>
		<g>
			<circle fill="#FFFFFF" cx="57.853" cy="62.948" r="39.566"/>
			<linearGradient id="SVGID_2_" gradientUnits="userSpaceOnUse" x1="57.853" y1="-55.1372" x2="57.853" y2="123.4419">
				<stop  offset="0.0552" style="stop-color:#ECECEC;stop-opacity:0"/>
				<stop  offset="1" style="stop-color:#C5C5C5"/>
			</linearGradient>
			<path fill="url(#SVGID_2_)" d="M57.854,23.382c21.852,0,39.565,17.714,39.565,39.566c0,21.853-17.714,39.566-39.565,39.566
				c-21.853,0-39.566-17.714-39.566-39.566C18.287,41.096,36.001,23.382,57.854,23.382 M57.854,18.152
				c-24.701,0-44.796,20.096-44.796,44.796c0,24.701,20.095,44.797,44.796,44.797c24.7,0,44.796-20.096,44.796-44.797
				C102.649,38.248,82.554,18.152,57.854,18.152L57.854,18.152z"/>
		</g>
		<g>
			<g>
				
					<path fill="none" stroke="#0C1B2D" stroke-width="0.6999" stroke-linecap="round" stroke-linejoin="round" stroke-miterlimit="10" d="
					M57.485,42.549c-7.861,3.515-13.334,11.37-13.334,20.498c0,9.111,5.454,16.955,13.293,20.479"/>
				
					<path fill="none" stroke="#0C1B2D" stroke-width="0.6852" stroke-linecap="round" stroke-linejoin="round" stroke-miterlimit="10" d="
					M42.935,76.663c3.921-3.647,9.166-5.876,14.928-5.876c5.754,0,10.991,2.222,14.91,5.858"/>
				
					<path fill="none" stroke="#0C1B2D" stroke-width="0.6852" stroke-linecap="round" stroke-linejoin="round" stroke-miterlimit="10" d="
					M72.772,49.087c-3.921,3.646-9.166,5.875-14.929,5.875c-5.753,0-10.99-2.222-14.909-5.858"/>
				
					<path fill="none" stroke="#0C1B2D" stroke-width="0.6999" stroke-linecap="round" stroke-linejoin="round" stroke-miterlimit="10" d="
					M58.192,42.549c7.86,3.515,13.334,11.37,13.334,20.498c0,9.111-5.455,16.955-13.293,20.479"/>
				
					<circle fill="none" stroke="#0C1B2D" stroke-width="1.2" stroke-linecap="round" stroke-linejoin="round" stroke-miterlimit="10" cx="57.854" cy="62.985" r="20.541"/>
				
					<line fill="none" stroke="#0C1B2D" stroke-width="0.6383" stroke-linecap="round" stroke-linejoin="round" stroke-miterlimit="10" x1="57.661" y1="42.37" x2="57.661" y2="83.523"/>
				
					<line fill="none" stroke="#0C1B2D" stroke-width="0.6999" stroke-linecap="round" stroke-linejoin="round" stroke-miterlimit="10" x1="37.622" y1="62.985" x2="78.106" y2="62.985"/>
			</g>
			
				<path fill="none" stroke="#0C1B2D" stroke-width="0.6852" stroke-linecap="round" stroke-linejoin="round" stroke-miterlimit="10" d="
				M73.307,52.013c1.003,0.994,1.702,2.266,2.171,3.598c0.47,1.333,0.72,2.732,0.916,4.132"/>
			
				<path fill="none" stroke="#0C1B2D" stroke-width="0.6852" stroke-linecap="round" stroke-linejoin="round" stroke-miterlimit="10" d="
				M39.262,66.354c0.479,2.424,1.374,4.766,2.634,6.892"/>
		</g>
	</g>
</g>
</svg>
