<?xml version="1.0" encoding="utf-8"?>
<!-- Generator: Adobe Illustrator 16.0.0, SVG Export Plug-In . SVG Version: 6.00 Build 0)  -->
<!DOCTYPE svg PUBLIC "-//W3C//DTD SVG 1.1//EN" "http://www.w3.org/Graphics/SVG/1.1/DTD/svg11.dtd">
<svg version="1.1" id="Layer_1" xmlns="http://www.w3.org/2000/svg" xmlns:xlink="http://www.w3.org/1999/xlink" x="0px" y="0px"
	 width="612px" height="330.728px" viewBox="0 0 612 330.728" enable-background="new 0 0 612 330.728" xml:space="preserve">
<rect fill="none" width="612" height="330.728"/>
<g>
	<path d="M15.003,103.165v-1.174c6.03,0,9.163-2.39,9.398-7.168V32.672c0-5.482-3.133-8.225-9.398-8.225v-1.174H45.55
		c23.497,0,35.246,5.403,35.246,16.213c0,9.478-7.441,15.195-22.323,17.153c9.243,0.94,16.84,3.408,22.794,7.4
		c5.952,3.996,8.929,9.204,8.929,15.629c0,7.597-3.193,13.413-9.575,17.446c-6.384,4.033-14.942,6.05-25.671,6.05H15.003z
		 M43.199,24.448v31.724h2.351c5.795,0,10.104-1.214,12.923-3.645c2.35-2.035,3.525-6.304,3.525-12.806
		c0-5.405-1.019-9.243-3.055-11.514c-2.114-2.505-6.58-3.76-13.393-3.76H43.199z M43.199,101.991h11.75
		c5.795,0,10.104-1.488,12.924-4.464c2.35-2.429,3.524-8.381,3.524-17.858c-0.157-6.894-1.802-12.338-4.934-16.333
		c-3.134-3.994-8.539-5.992-16.214-5.992h-7.05V101.991z"/>
	<path d="M94.895,23.273h65.793v17.624h-1.174c-0.705-10.965-5.601-16.449-14.686-16.449h-21.735v32.896h10.456
		c5.482,0,8.224-3.133,8.224-9.399h1.175v19.975h-1.175c0-6.265-2.742-9.398-8.224-9.398h-10.456v43.471h22.91
		c9.085,0,13.982-5.483,14.686-16.45h1.176v17.624H94.895v-1.174c6.03,0,9.164-2.39,9.399-7.168V32.672
		c0-5.482-3.133-8.225-9.399-8.225V23.273z"/>
	<path d="M233.532,89.535v13.63h-13.747l-41.474-70.492v61.095c0,5.481,3.133,8.223,9.399,8.223v1.174h-19.973v-1.174
		c6.265,0,9.398-2.741,9.398-8.223V32.672c0-5.482-3.133-8.225-9.398-8.225v-1.174h26.854l37.765,64.188v-54.8
		c0-5.477-3.133-8.214-9.399-8.214v-1.174h19.974v1.174c-6.266,0-9.399,2.743-9.399,8.225V89.535z"/>
	<path d="M245.281,125.489c7.832,0,11.748-8.224,11.748-24.674V32.672c0-5.482-3.133-8.225-9.398-8.225v-1.174h37.597v1.174
		c-6.267,0-9.4,2.743-9.4,8.225v54.044c0,11.672-2.604,21.246-7.813,28.727c-5.209,7.479-12.787,11.221-22.734,11.221
		c-5.405,0-9.125-2.273-11.163-6.816l1.058-0.469C236.979,123.452,240.346,125.489,245.281,125.489z"/>
	<path d="M326.313,78.492h-26.74l-5.267,15.951c-0.437,1.338-0.655,2.477-0.655,3.42c0,2.752,2.842,4.128,8.527,4.128v1.174h-19.89
		v-1.174c5.561,0,9.203-2.663,10.926-7.989l19.089-58.508l-0.996-3.056c-1.88-5.326-5.521-7.99-10.926-7.99v-1.174h22.673
		c3.367,0,5.992,2.898,7.871,8.695l20.211,62.034c1.721,5.325,5.402,7.988,11.042,7.988v1.174h-37.594v-1.174
		c5.091,0,7.637-1.331,7.637-3.994c0-0.901-0.234-2.076-0.705-3.524L326.313,78.492z M325.931,77.317l-12.978-40.023l-13.12,40.023
		H325.931z"/>
	<path d="M396.606,23.273l22.911,51.569l26.317-51.569h25.611v1.174c-6.267,0-9.399,2.743-9.399,8.225l4.7,61.096
		c0.431,5.481,3.563,8.223,9.398,8.223v1.174h-37.591v-1.174c6.262,0,9.395-2.351,9.395-7.051v-1.172l-4.813-62.623l-22.968,45.01
		c2.462,4.696,3.695,9.235,3.695,13.619c0,2.584-0.275,4.384-0.823,5.4h-15.626c0.391-0.389,0.588-0.935,0.588-1.637
		c0-0.311-0.049-0.545-0.145-0.699L380.986,32.67l-4.701,61.098v1.172c0,4.7,3.132,7.051,9.399,7.051v1.174h-19.978v-1.174
		c5.951,0,9.085-2.741,9.4-8.223l4.7-61.096c0-5.482-3.134-8.225-9.399-8.225v-1.174H396.606z"/>
	<path d="M480.847,23.273h37.596v1.174c-6.267,0-9.399,2.743-9.399,8.225v61.096c0,5.481,3.133,8.223,9.399,8.223v1.174h-37.596
		v-1.174c6.265,0,9.398-2.741,9.398-8.223V32.672c0-5.482-3.134-8.225-9.398-8.225V23.273z"/>
	<path d="M588.934,89.535v13.63h-13.745l-41.475-70.492v61.095c0,5.481,3.134,8.223,9.399,8.223v1.174h-19.973v-1.174
		c6.265,0,9.399-2.741,9.399-8.223V32.672c0-5.482-3.135-8.225-9.399-8.225v-1.174h26.854l37.767,64.188v-54.8
		c0-5.477-3.136-8.214-9.399-8.214v-1.174h19.973v1.174c-6.268,0-9.4,2.743-9.4,8.225V89.535z"/>
</g>
<g>
	<path d="M32.12,129.918c-9.086,0-13.981,5.485-14.686,16.451h-1.174v-17.626h65.793v17.626h-1.175
		c-0.705-10.966-5.581-16.451-14.627-16.451h-7.695v69.318c0,5.485,3.132,8.227,9.399,8.227v1.173H30.358v-1.173
		c6.266,0,9.399-2.741,9.399-8.227v-69.318H32.12z"/>
	<path d="M128.56,183.963h-26.74l-5.265,15.951c-0.438,1.337-0.655,2.476-0.655,3.421c0,2.75,2.842,4.128,8.526,4.128v1.173H84.536
		v-1.173c5.561,0,9.202-2.665,10.926-7.99l19.089-58.508l-0.997-3.058c-1.879-5.324-5.521-7.989-10.926-7.989v-1.175h22.673
		c3.367,0,5.991,2.899,7.87,8.697l20.209,62.032c1.723,5.325,5.405,7.99,11.044,7.99v1.173h-37.593v-1.173
		c5.09,0,7.637-1.331,7.637-3.998c0-0.898-0.235-2.073-0.705-3.521L128.56,183.963z M128.178,182.789l-12.979-40.023l-13.121,40.023
		H128.178z"/>
	<path d="M179.834,128.743h39.946c10.73,0,19.288,2.038,25.672,6.11c6.383,4.075,9.575,9.948,9.575,17.623
		c0,4.47-1.609,8.507-4.826,12.111c-3.217,3.605-7.572,6.39-13.065,8.348l12.769,26.569c1.253,2.575,2.467,4.448,3.643,5.618
		c1.565,1.559,3.993,2.34,7.284,2.34v1.173H238.55c-2.966,0-5.736-2.897-8.312-8.692l-11.632-24.204h-10.575v23.497
		c0,5.485,3.133,8.227,9.399,8.227v1.173h-37.596v-1.173c6.266,0,9.399-2.741,9.399-8.227v-62.149
		c-0.234-4.779-3.368-7.169-9.399-7.169V128.743z M208.032,129.918v44.645h11.749c10.965,0,16.448-7.438,16.448-22.32
		c0-14.883-5.483-22.324-16.448-22.324H208.032z"/>
	<path d="M317.982,183.963h-26.739l-5.266,15.951c-0.437,1.337-0.654,2.476-0.654,3.421c0,2.75,2.842,4.128,8.526,4.128v1.173
		h-19.89v-1.173c5.561,0,9.203-2.665,10.926-7.99l19.09-58.508l-0.997-3.058c-1.879-5.324-5.521-7.989-10.926-7.989v-1.175h22.672
		c3.368,0,5.992,2.899,7.871,8.697l20.21,62.032c1.722,5.325,5.403,7.99,11.044,7.99v1.173h-37.594v-1.173
		c5.09,0,7.636-1.331,7.636-3.998c0-0.898-0.235-2.073-0.704-3.521L317.982,183.963z M317.602,182.789l-12.979-40.023l-13.12,40.023
		H317.602z"/>
	<path d="M394.167,129.332c-6.66,0-11.359,4.111-14.101,12.338c-1.724,5.208-2.583,14.214-2.583,27.021
		c0,11.122,0.822,20.051,2.465,26.787c2.038,8.381,6.659,12.572,13.865,12.572c7.676,0,14.765-2.783,21.267-8.343v1.527
		c-6.502,5.328-13.591,7.989-21.267,7.989c-10.416,0-18.877-3.916-25.376-11.75c-6.502-7.831-9.753-17.426-9.753-28.783
		c0-11.2,3.29-20.755,9.869-28.667c6.58-7.911,15.078-11.867,25.495-11.867c3.681,0,6.873,0.508,9.575,1.528
		c2.506,0.979,4.856,1.467,7.051,1.467c2.23,0,3.348-0.802,3.348-2.408h1.173l1.06,18.093h-1.175c0-1.253-0.295-2.74-0.882-4.465
		c-1.761-5.128-4.915-8.771-9.459-10.926C401.764,130.035,398.237,129.332,394.167,129.332z"/>
	<path d="M488.056,199.236v-34.071h-28.196v34.071c0,5.485,3.133,8.227,9.398,8.227v1.173h-37.596v-1.173
		c6.267,0,9.399-2.741,9.399-8.227v-61.094c0-5.48-3.133-8.225-9.399-8.225v-1.175h23.498c3.132,0,4.699,3.133,4.699,9.399v25.848
		h28.196v-25.848c0-5.48-3.134-8.225-9.397-8.225v-1.175h37.597v1.175c-6.267,0-9.4,2.744-9.4,8.225v61.094
		c0,5.485,3.134,8.227,9.4,8.227v1.173h-37.597v-1.173C484.922,207.463,488.056,204.722,488.056,199.236z"/>
	<path d="M531.659,128.743h65.794v17.626h-1.173c-0.706-10.966-5.602-16.451-14.687-16.451h-21.737v32.897h10.457
		c5.482,0,8.225-3.133,8.225-9.398h1.175v19.974h-1.175c0-6.267-2.742-9.4-8.225-9.4h-10.457v43.473h22.91
		c9.087,0,13.982-5.483,14.687-16.449h1.176v17.622h-66.97v-1.173c6.031,0,9.165-2.392,9.4-7.167v-62.153
		c0-5.48-3.135-8.225-9.4-8.225V128.743z"/>
</g>
<g>
	<g>
		<path d="M98.404,304.56h-3.14c-1.177,0-2.06-0.361-2.649-1.08c-0.067-0.13-0.88-2.18-2.438-6.147l-10.107-25.469l-7.343,18.384
			l-5.717,14.313h-3.164c-1.187,0-2.076-0.354-2.669-1.062c-0.067-0.132-0.882-2.18-2.443-6.145L44.35,261.198
			c-1.308-3.27-2.485-5.199-3.531-5.788c-0.917-0.588-2.486-0.882-4.708-0.882v-0.982h18.634c2.222,0,4.216,2.421,5.98,7.262
			l11.4,28.036l7.478-18.452l-3.763-9.193c-0.917-2.354-1.701-3.923-2.354-4.709c-1.112-1.307-3.107-1.961-5.984-1.961v-0.982
			h30.393v0.982c-4.187,0-6.278,1.08-6.278,3.241c0,1.048,0.196,2.063,0.588,3.044l11.331,28.027l11.321-28.006
			c0.424-1.117,0.638-2.168,0.638-3.154c0-2.102-1.913-3.152-5.739-3.152v-0.982h12.683v0.982c-2.813,0.066-5.037,2.289-6.671,6.67
			l-11.635,29.054L98.404,304.56z"/>
		<path d="M147.944,305.05c-8.829,0-15.631-2.257-20.405-6.77c-4.709-4.513-7.063-10.922-7.063-19.228
			c0-8.241,2.387-14.649,7.161-19.228c4.773-4.514,11.542-6.77,20.307-6.77c8.763,0,15.532,2.256,20.307,6.77
			c4.773,4.578,7.161,10.986,7.161,19.228h-39.24c0,11.575,0.654,18.279,1.962,20.11c2.419,3.271,5.689,4.905,9.81,4.905
			c4.904,0,9.516-1.209,13.832-3.63c4.316-2.419,7.75-5.593,10.3-9.515l0.786,0.49c-2.617,4.119-6.148,7.424-10.595,9.906
			C157.819,303.807,153.045,305.05,147.944,305.05z M136.172,278.072h23.544c0-9.939-0.491-15.958-1.472-18.051
			c-1.831-3.989-5.265-5.984-10.3-5.984c-4.971,0-8.176,1.667-9.614,5.002C136.891,262.507,136.172,268.85,136.172,278.072z"/>
		<path d="M197.975,256.294c3.27-2.158,6.54-3.238,9.81-3.238c7.716,0,13.897,2.322,18.541,6.966
			c4.644,4.578,6.965,10.922,6.965,19.031s-2.289,14.453-6.867,19.032c-4.644,4.578-10.856,6.865-18.639,6.865
			c-3.663,0-6.933-1.078-9.81-3.236c-2.158-1.698-4.186-2.551-6.082-2.551c-1.113,0-2.535,0.899-4.268,2.699
			c-1.734,1.797-2.698,2.697-2.894,2.697h-2.453v-66.709c0-4.577-2.616-6.867-7.848-6.867v-0.981h19.62
			c2.615,0,3.924,2.618,3.924,7.849V256.294z M197.975,300.438c3.204,2.354,6.474,3.531,9.81,3.531c4.25,0,7.128-1.863,8.633-5.592
			c0.784-2.092,1.177-8.535,1.177-19.325c0-11.117-0.393-17.592-1.177-19.424c-1.569-3.729-4.448-5.592-8.633-5.592
			c-3.336,0-6.606,1.177-9.81,3.531v29.43V300.438z"/>
	</g>
	<g>
		<path d="M275.891,258.729v28.073c0,2.183,1.248,3.275,3.743,3.275v0.467h-9.358c-0.312,0-0.663-0.249-1.052-0.748
			c-0.39-0.498-0.6-0.748-0.632-0.748c-1.685,1.122-3.306,1.684-4.866,1.684c-3.681,0-6.628-1.099-8.843-3.3
			c-2.214-2.196-3.321-5.231-3.321-9.098c0-3.868,1.099-6.894,3.298-9.077c2.199-2.185,5.154-3.274,8.866-3.274
			c1.56,0,3.119,0.514,4.679,1.543v-8.797c0-2.181-1.249-3.273-3.744-3.273v-0.467h9.358
			C275.266,254.989,275.891,256.235,275.891,258.729z M259.047,278.335c0,5.302,0.188,8.39,0.562,9.263
			c0.749,1.776,2.121,2.667,4.117,2.667c1.622,0,3.213-0.576,4.772-1.731c-0.063-0.56-0.093-1.154-0.093-1.777v-18.621
			c-1.529-1.123-3.088-1.684-4.679-1.684c-2.027,0-3.4,0.889-4.117,2.667C259.235,270.117,259.047,273.188,259.047,278.335z"/>
		<path d="M295.777,290.778c-4.21,0-7.455-1.076-9.732-3.228c-2.246-2.151-3.368-5.209-3.368-9.17c0-3.93,1.138-6.985,3.415-9.171
			c2.277-2.151,5.505-3.227,9.685-3.227c4.179,0,7.408,1.075,9.685,3.227c2.277,2.186,3.416,5.241,3.416,9.171h-18.715
			c0,5.521,0.312,8.718,0.936,9.593c1.153,1.559,2.713,2.338,4.678,2.338c2.339,0,4.538-0.576,6.598-1.731
			c2.057-1.153,3.695-2.667,4.912-4.538l0.375,0.234c-1.249,1.965-2.933,3.541-5.054,4.726
			C300.486,290.187,298.209,290.778,295.777,290.778z M290.163,277.912h11.229c0-4.74-0.234-7.608-0.702-8.608
			c-0.874-1.901-2.511-2.853-4.913-2.853c-2.371,0-3.899,0.795-4.585,2.386C290.505,270.489,290.163,273.515,290.163,277.912z"/>
		<path d="M321.321,269.681l5.44,13.379l5.405-13.368c0.202-0.532,0.304-1.032,0.304-1.504c0-1.002-0.914-1.504-2.736-1.504v-0.467
			h6.048v0.467c-1.342,0.033-2.401,1.094-3.181,3.183l-5.549,13.856l-2.733,6.822h-1.509c-0.565,0-0.99-0.169-1.273-0.508
			c-0.031-0.059-0.421-1.036-1.164-2.928l-6.86-17.243c-0.625-1.559-1.186-2.479-1.685-2.76c-0.438-0.282-1.187-0.423-2.246-0.423
			v-0.467h8.887C319.528,266.217,320.479,267.372,321.321,269.681z"/>
		<path d="M350.056,290.778c-4.212,0-7.457-1.076-9.732-3.228c-2.245-2.151-3.368-5.209-3.368-9.17c0-3.93,1.137-6.985,3.415-9.171
			c2.276-2.151,5.504-3.227,9.686-3.227c4.178,0,7.405,1.075,9.684,3.227c2.276,2.186,3.415,5.241,3.415,9.171h-18.713
			c0,5.521,0.31,8.718,0.935,9.593c1.153,1.559,2.713,2.338,4.68,2.338c2.339,0,4.536-0.576,6.596-1.731
			c2.059-1.153,3.696-2.667,4.913-4.538l0.374,0.234c-1.249,1.965-2.933,3.541-5.053,4.726
			C354.763,290.187,352.486,290.778,350.056,290.778z M344.441,277.912h11.228c0-4.74-0.234-7.608-0.702-8.608
			c-0.874-1.901-2.512-2.853-4.911-2.853c-2.373,0-3.9,0.795-4.586,2.386C344.782,270.489,344.441,273.515,344.441,277.912z"/>
		<path d="M376.492,258.729v28.073c0,2.183,1.246,3.275,3.742,3.275v0.467h-14.973v-0.467c2.496,0,3.744-1.093,3.744-3.275v-28.073
			c0-2.181-1.248-3.273-3.744-3.273v-0.467h9.358C375.868,254.989,376.492,256.235,376.492,258.729z"/>
		<path d="M396.379,290.778c-4.211,0-7.455-1.076-9.732-3.228c-2.245-2.151-3.368-5.209-3.368-9.17c0-3.93,1.138-6.985,3.414-9.171
			c2.278-2.151,5.505-3.227,9.687-3.227c4.178,0,7.406,1.075,9.683,3.227c2.278,2.186,3.417,5.241,3.417,9.171
			c0,3.961-1.123,7.019-3.369,9.17C403.831,289.702,400.59,290.778,396.379,290.778z M396.379,290.312
			c2.369,0,3.896-0.825,4.586-2.479c0.686-1.686,1.028-4.834,1.028-9.451c0-4.615-0.343-7.767-1.028-9.451
			c-0.689-1.651-2.217-2.479-4.586-2.479c-2.683,0-4.321,1.028-4.914,3.087c-0.468,1.653-0.7,4.602-0.7,8.843
			c0,4.243,0.232,7.191,0.7,8.842C392.058,289.281,393.696,290.312,396.379,290.312z"/>
		<path d="M422.814,296.159c0,2.184,1.248,3.276,3.742,3.276v0.467h-14.972v-0.467c2.497,0,3.743-1.093,3.743-3.276v-26.201
			c0-2.181-1.246-3.274-3.743-3.274v-0.467h9.357c0.281,0,0.616,0.241,1.007,0.724c0.391,0.484,0.616,0.727,0.678,0.727
			c1.684-1.123,3.308-1.684,4.867-1.684c3.68,0,6.626,1.1,8.843,3.296c2.213,2.201,3.32,5.234,3.32,9.102s-1.1,6.895-3.298,9.076
			c-2.198,2.185-5.153,3.275-8.865,3.275c-1.56,0-3.119-0.514-4.68-1.543V296.159z M432.171,278.381c0-5.302-0.186-8.39-0.561-9.263
			c-0.748-1.778-2.12-2.667-4.116-2.667c-1.623,0-3.213,0.577-4.772,1.73c0.063,0.561,0.093,1.154,0.093,1.776v18.622
			c1.528,1.122,3.087,1.685,4.68,1.685c2.026,0,3.399-0.891,4.116-2.667C431.985,286.601,432.171,283.527,432.171,278.381z"/>
		<path d="M453.931,269.958v16.845c0,2.183,1.247,3.275,3.743,3.275v0.467h-14.973v-0.467c2.496,0,3.743-1.093,3.743-3.275v-16.845
			c0-2.181-1.247-3.274-3.743-3.274v-0.467h9.357c0.28,0,0.615,0.241,1.006,0.724c0.39,0.484,0.617,0.727,0.679,0.727
			c1.685-1.123,3.307-1.684,4.865-1.684c4.897,0,8.329,1.061,10.294,3.18c0.561-0.592,1.123-1.09,1.684-1.496
			c1.685-1.123,3.307-1.684,4.865-1.684c8.109,0,12.165,2.885,12.165,8.654v12.165c0,2.183,1.248,3.275,3.743,3.275v0.467h-14.972
			v-0.467c2.494,0,3.743-1.093,3.743-3.275v-11.697c0-5.77-1.559-8.654-4.68-8.654c-1.621,0-3.213,0.577-4.771,1.73
			c-0.624,0.468-1.108,0.937-1.45,1.404c1.029,1.309,1.544,2.993,1.544,5.052v12.165c0,2.183,1.249,3.275,3.743,3.275v0.467h-14.972
			v-0.467c2.494,0,3.743-1.093,3.743-3.275v-11.697c0-5.77-1.559-8.654-4.68-8.654c-1.622,0-3.213,0.577-4.771,1.73
			C453.899,268.742,453.931,269.336,453.931,269.958z"/>
		<path d="M507.503,290.778c-4.21,0-7.454-1.076-9.729-3.228c-2.246-2.151-3.369-5.209-3.369-9.17c0-3.93,1.137-6.985,3.414-9.171
			c2.278-2.151,5.505-3.227,9.685-3.227c4.181,0,7.408,1.075,9.686,3.227c2.278,2.186,3.415,5.241,3.415,9.171h-18.715
			c0,5.521,0.312,8.718,0.936,9.593c1.154,1.559,2.715,2.338,4.679,2.338c2.339,0,4.539-0.576,6.597-1.731
			c2.06-1.153,3.696-2.667,4.913-4.538l0.375,0.234c-1.248,1.965-2.932,3.541-5.055,4.726
			C512.212,290.187,509.936,290.778,507.503,290.778z M501.889,277.912h11.229c0-4.74-0.232-7.608-0.702-8.608
			c-0.873-1.901-2.511-2.853-4.912-2.853c-2.369,0-3.899,0.795-4.585,2.386C502.231,270.489,501.889,273.515,501.889,277.912z"/>
		<path d="M534.875,269.958v16.845c0,2.183,1.248,3.275,3.742,3.275v0.467h-14.972v-0.467c2.498,0,3.743-1.093,3.743-3.275v-16.845
			c0-2.181-1.245-3.274-3.743-3.274v-0.467h9.357c0.28,0,0.617,0.241,1.007,0.724c0.39,0.484,0.615,0.727,0.678,0.727
			c1.685-1.123,3.308-1.684,4.865-1.684c8.111,0,12.166,2.885,12.166,8.654v12.165c0,2.183,1.248,3.275,3.741,3.275v0.467h-14.97
			v-0.467c2.495,0,3.741-1.093,3.741-3.275v-11.697c0-5.77-1.559-8.654-4.679-8.654c-1.62,0-3.211,0.577-4.771,1.73
			C534.846,268.742,534.875,269.336,534.875,269.958z"/>
		<path d="M566.928,285.516c0,3.198,0.936,4.796,2.809,4.796c1.931,0,3.274-0.812,4.021-2.433l0.42,0.188
			c-0.809,1.809-2.29,2.712-4.441,2.712c-6.864,0-10.294-3.897-10.294-11.695v-9.125c0-2.181-1.249-3.274-3.744-3.274v-0.467h2.06
			c2.994,0,4.491-2.182,4.491-6.552h4.679v6.552h6.55v0.467c-2.185,0-4.366,0-6.55,0
			C566.928,276.354,566.928,282.631,566.928,285.516z"/>
	</g>
</g>
<g>
	<g>
		<path fill="#FFFFFF" d="M96.858,304.56h-3.139c-1.177,0-2.061-0.361-2.649-1.08c-0.067-0.13-0.88-2.18-2.437-6.147l-10.107-25.469
			l-7.343,18.384l-5.716,14.313h-3.164c-1.186,0-2.076-0.354-2.669-1.062c-0.068-0.132-0.883-2.18-2.443-6.145l-14.385-36.155
			c-1.309-3.27-2.486-5.199-3.532-5.788c-0.916-0.588-2.485-0.882-4.709-0.882v-0.982h18.634c2.224,0,4.216,2.421,5.981,7.262
			l11.4,28.036l7.477-18.452l-3.762-9.193c-0.916-2.354-1.701-3.923-2.354-4.709c-1.113-1.307-3.107-1.961-5.984-1.961v-0.982
			h30.393v0.982c-4.186,0-6.277,1.08-6.277,3.241c0,1.048,0.196,2.063,0.587,3.044l11.331,28.027l11.321-28.006
			c0.424-1.117,0.637-2.168,0.637-3.154c0-2.102-1.914-3.152-5.739-3.152v-0.982h12.683v0.982c-2.813,0.066-5.036,2.289-6.671,6.67
			l-11.635,29.054L96.858,304.56z"/>
		<path fill="#FFFFFF" d="M146.398,305.05c-8.829,0-15.631-2.257-20.405-6.77c-4.708-4.513-7.063-10.922-7.063-19.228
			c0-8.241,2.388-14.649,7.162-19.228c4.774-4.514,11.542-6.77,20.307-6.77c8.764,0,15.533,2.256,20.307,6.77
			c4.773,4.578,7.162,10.986,7.162,19.228h-39.241c0,11.575,0.654,18.279,1.962,20.11c2.42,3.271,5.69,4.905,9.811,4.905
			c4.905,0,9.516-1.209,13.832-3.63c4.316-2.419,7.75-5.593,10.3-9.515l0.785,0.49c-2.616,4.119-6.147,7.424-10.595,9.906
			C156.273,303.807,151.5,305.05,146.398,305.05z M134.626,278.072h23.544c0-9.939-0.491-15.958-1.471-18.051
			c-1.832-3.989-5.266-5.984-10.301-5.984c-4.97,0-8.176,1.667-9.614,5.002C135.345,262.507,134.626,268.85,134.626,278.072z"/>
		<path fill="#FFFFFF" d="M196.43,256.294c3.27-2.158,6.54-3.238,9.81-3.238c7.716,0,13.896,2.322,18.541,6.966
			c4.644,4.578,6.965,10.922,6.965,19.031s-2.29,14.453-6.867,19.032c-4.645,4.578-10.857,6.865-18.639,6.865
			c-3.664,0-6.933-1.078-9.81-3.236c-2.158-1.698-4.187-2.551-6.083-2.551c-1.112,0-2.535,0.899-4.267,2.699
			c-1.733,1.797-2.698,2.697-2.894,2.697h-2.453v-66.709c0-4.577-2.616-6.867-7.848-6.867v-0.981h19.62
			c2.616,0,3.924,2.618,3.924,7.849V256.294z M196.43,300.438c3.204,2.354,6.475,3.531,9.81,3.531c4.25,0,7.128-1.863,8.633-5.592
			c0.784-2.092,1.177-8.535,1.177-19.325c0-11.117-0.393-17.592-1.177-19.424c-1.57-3.729-4.448-5.592-8.633-5.592
			c-3.335,0-6.606,1.177-9.81,3.531v29.43V300.438z"/>
	</g>
	<g>
		<path fill="#FFFFFF" d="M274.346,258.729v28.073c0,2.183,1.247,3.275,3.742,3.275v0.467h-9.357c-0.313,0-0.664-0.249-1.053-0.748
			c-0.39-0.498-0.601-0.748-0.631-0.748c-1.685,1.122-3.307,1.684-4.866,1.684c-3.681,0-6.628-1.099-8.842-3.3
			c-2.215-2.196-3.322-5.231-3.322-9.098c0-3.868,1.099-6.894,3.298-9.077c2.199-2.185,5.154-3.274,8.866-3.274
			c1.559,0,3.119,0.514,4.679,1.543v-8.797c0-2.181-1.248-3.273-3.743-3.273v-0.467h9.357
			C273.721,254.989,274.346,256.235,274.346,258.729z M257.502,278.335c0,5.302,0.187,8.39,0.562,9.263
			c0.748,1.776,2.121,2.667,4.117,2.667c1.622,0,3.212-0.576,4.772-1.731c-0.063-0.56-0.094-1.154-0.094-1.777v-18.621
			c-1.529-1.123-3.088-1.684-4.679-1.684c-2.028,0-3.4,0.889-4.117,2.667C257.689,270.117,257.502,273.188,257.502,278.335z"/>
		<path fill="#FFFFFF" d="M294.231,290.778c-4.211,0-7.455-1.076-9.731-3.228c-2.246-2.151-3.368-5.209-3.368-9.17
			c0-3.93,1.138-6.985,3.416-9.171c2.276-2.151,5.504-3.227,9.684-3.227c4.18,0,7.407,1.075,9.686,3.227
			c2.276,2.186,3.414,5.241,3.414,9.171h-18.714c0,5.521,0.312,8.718,0.936,9.593c1.154,1.559,2.713,2.338,4.679,2.338
			c2.339,0,4.539-0.576,6.597-1.731c2.059-1.153,3.697-2.667,4.913-4.538l0.375,0.234c-1.248,1.965-2.933,3.541-5.053,4.726
			S296.665,290.778,294.231,290.778z M288.617,277.912h11.229c0-4.74-0.234-7.608-0.702-8.608c-0.874-1.901-2.511-2.853-4.913-2.853
			c-2.371,0-3.899,0.795-4.584,2.386C288.96,270.489,288.617,273.515,288.617,277.912z"/>
		<path fill="#FFFFFF" d="M319.777,269.681l5.438,13.379l5.405-13.368c0.202-0.532,0.304-1.032,0.304-1.504
			c0-1.002-0.913-1.504-2.736-1.504v-0.467h6.05v0.467c-1.344,0.033-2.403,1.094-3.182,3.183l-5.55,13.856l-2.733,6.822h-1.508
			c-0.566,0-0.991-0.169-1.273-0.508c-0.032-0.059-0.421-1.036-1.165-2.928l-6.859-17.243c-0.625-1.559-1.188-2.479-1.685-2.76
			c-0.438-0.282-1.187-0.423-2.247-0.423v-0.467h8.887C317.982,266.217,318.934,267.372,319.777,269.681z"/>
		<path fill="#FFFFFF" d="M348.509,290.778c-4.212,0-7.456-1.076-9.731-3.228c-2.246-2.151-3.368-5.209-3.368-9.17
			c0-3.93,1.138-6.985,3.416-9.171c2.277-2.151,5.503-3.227,9.684-3.227c4.18,0,7.406,1.075,9.685,3.227
			c2.277,2.186,3.416,5.241,3.416,9.171h-18.715c0,5.521,0.311,8.718,0.935,9.593c1.154,1.559,2.714,2.338,4.68,2.338
			c2.339,0,4.538-0.576,6.597-1.731c2.059-1.153,3.696-2.667,4.913-4.538l0.374,0.234c-1.249,1.965-2.933,3.541-5.053,4.726
			C353.219,290.187,350.942,290.778,348.509,290.778z M342.895,277.912h11.229c0-4.74-0.233-7.608-0.701-8.608
			c-0.875-1.901-2.512-2.853-4.913-2.853c-2.371,0-3.899,0.795-4.585,2.386C343.237,270.489,342.895,273.515,342.895,277.912z"/>
		<path fill="#FFFFFF" d="M374.947,258.729v28.073c0,2.183,1.247,3.275,3.741,3.275v0.467h-14.971v-0.467
			c2.494,0,3.742-1.093,3.742-3.275v-28.073c0-2.181-1.248-3.273-3.742-3.273v-0.467h9.356
			C374.322,254.989,374.947,256.235,374.947,258.729z"/>
		<path fill="#FFFFFF" d="M394.833,290.778c-4.211,0-7.456-1.076-9.732-3.228c-2.245-2.151-3.368-5.209-3.368-9.17
			c0-3.93,1.14-6.985,3.415-9.171c2.277-2.151,5.505-3.227,9.686-3.227c4.178,0,7.409,1.075,9.685,3.227
			c2.277,2.186,3.416,5.241,3.416,9.171c0,3.961-1.123,7.019-3.369,9.17C402.285,289.702,399.044,290.778,394.833,290.778z
			 M394.833,290.312c2.369,0,3.896-0.825,4.585-2.479c0.687-1.686,1.029-4.834,1.029-9.451c0-4.615-0.343-7.767-1.029-9.451
			c-0.688-1.651-2.216-2.479-4.585-2.479c-2.683,0-4.321,1.028-4.914,3.087c-0.469,1.653-0.7,4.602-0.7,8.843
			c0,4.243,0.231,7.191,0.7,8.842C390.512,289.281,392.15,290.312,394.833,290.312z"/>
		<path fill="#FFFFFF" d="M421.27,296.159c0,2.184,1.247,3.276,3.742,3.276v0.467h-14.971v-0.467c2.496,0,3.741-1.093,3.741-3.276
			v-26.201c0-2.181-1.245-3.274-3.741-3.274v-0.467h9.355c0.281,0,0.616,0.241,1.008,0.724c0.39,0.484,0.616,0.727,0.677,0.727
			c1.684-1.123,3.309-1.684,4.867-1.684c3.68,0,6.629,1.1,8.844,3.296c2.212,2.201,3.32,5.234,3.32,9.102s-1.099,6.895-3.298,9.076
			c-2.199,2.185-5.154,3.275-8.866,3.275c-1.559,0-3.119-0.514-4.679-1.543V296.159z M430.627,278.381
			c0-5.302-0.188-8.39-0.563-9.263c-0.748-1.778-2.12-2.667-4.116-2.667c-1.62,0-3.212,0.577-4.772,1.73
			c0.063,0.561,0.094,1.154,0.094,1.776v18.622c1.527,1.122,3.088,1.685,4.679,1.685c2.026,0,3.399-0.891,4.116-2.667
			C430.439,286.601,430.627,283.527,430.627,278.381z"/>
		<path fill="#FFFFFF" d="M452.385,269.958v16.845c0,2.183,1.249,3.275,3.743,3.275v0.467h-14.972v-0.467
			c2.495,0,3.742-1.093,3.742-3.275v-16.845c0-2.181-1.247-3.274-3.742-3.274v-0.467h9.357c0.279,0,0.615,0.241,1.005,0.724
			c0.391,0.484,0.617,0.727,0.679,0.727c1.686-1.123,3.308-1.684,4.866-1.684c4.897,0,8.329,1.061,10.293,3.18
			c0.561-0.592,1.123-1.09,1.684-1.496c1.685-1.123,3.308-1.684,4.867-1.684c8.107,0,12.163,2.885,12.163,8.654v12.165
			c0,2.183,1.248,3.275,3.744,3.275v0.467h-14.973v-0.467c2.495,0,3.743-1.093,3.743-3.275v-11.697c0-5.77-1.56-8.654-4.678-8.654
			c-1.622,0-3.214,0.577-4.772,1.73c-0.624,0.468-1.109,0.937-1.45,1.404c1.028,1.309,1.543,2.993,1.543,5.052v12.165
			c0,2.183,1.249,3.275,3.743,3.275v0.467h-14.972v-0.467c2.494,0,3.743-1.093,3.743-3.275v-11.697c0-5.77-1.559-8.654-4.679-8.654
			c-1.622,0-3.213,0.577-4.771,1.73C452.354,268.742,452.385,269.336,452.385,269.958z"/>
		<path fill="#FFFFFF" d="M505.958,290.778c-4.211,0-7.456-1.076-9.731-3.228c-2.245-2.151-3.368-5.209-3.368-9.17
			c0-3.93,1.137-6.985,3.415-9.171c2.277-2.151,5.504-3.227,9.685-3.227c4.179,0,7.407,1.075,9.686,3.227
			c2.277,2.186,3.414,5.241,3.414,9.171h-18.714c0,5.521,0.312,8.718,0.937,9.593c1.152,1.559,2.713,2.338,4.678,2.338
			c2.339,0,4.538-0.576,6.598-1.731c2.058-1.153,3.694-2.667,4.911-4.538l0.376,0.234c-1.249,1.965-2.933,3.541-5.054,4.726
			C510.667,290.187,508.39,290.778,505.958,290.778z M500.344,277.912h11.229c0-4.74-0.233-7.608-0.702-8.608
			c-0.874-1.901-2.511-2.853-4.912-2.853c-2.37,0-3.9,0.795-4.586,2.386C500.686,270.489,500.344,273.515,500.344,277.912z"/>
		<path fill="#FFFFFF" d="M533.33,269.958v16.845c0,2.183,1.248,3.275,3.742,3.275v0.467h-14.972v-0.467
			c2.497,0,3.743-1.093,3.743-3.275v-16.845c0-2.181-1.246-3.274-3.743-3.274v-0.467h9.357c0.281,0,0.616,0.241,1.007,0.724
			c0.389,0.484,0.615,0.727,0.678,0.727c1.684-1.123,3.307-1.684,4.865-1.684c8.11,0,12.165,2.885,12.165,8.654v12.165
			c0,2.183,1.247,3.275,3.743,3.275v0.467h-14.972v-0.467c2.496,0,3.742-1.093,3.742-3.275v-11.697c0-5.77-1.558-8.654-4.679-8.654
			c-1.621,0-3.211,0.577-4.771,1.73C533.3,268.742,533.33,269.336,533.33,269.958z"/>
		<path fill="#FFFFFF" d="M565.383,285.516c0,3.198,0.935,4.796,2.808,4.796c1.931,0,3.274-0.812,4.022-2.433l0.421,0.188
			c-0.812,1.809-2.292,2.712-4.443,2.712c-6.864,0-10.294-3.897-10.294-11.695v-9.125c0-2.181-1.249-3.274-3.742-3.274v-0.467h2.058
			c2.996,0,4.491-2.182,4.491-6.552h4.68v6.552h6.549v0.467c-2.186,0-4.366,0-6.549,0
			C565.383,276.354,565.383,282.631,565.383,285.516z"/>
	</g>
</g>
</svg>
