<?xml version="1.0" encoding="utf-8"?>
<!-- Generator: Adobe Illustrator 16.0.0, SVG Export Plug-In . SVG Version: 6.00 Build 0)  -->
<!DOCTYPE svg PUBLIC "-//W3C//DTD SVG 1.1//EN" "http://www.w3.org/Graphics/SVG/1.1/DTD/svg11.dtd">
<svg version="1.1" id="Layer_1" xmlns="http://www.w3.org/2000/svg" xmlns:xlink="http://www.w3.org/1999/xlink" x="0px" y="0px"
	 width="612px" height="330.729px" viewBox="0 0 612 330.729" enable-background="new 0 0 612 330.729" xml:space="preserve">
<rect y="0" fill="none" width="612" height="330.729"/>
<path d="M15.003,113.165v-1.174c6.03,0,9.163-2.39,9.398-7.168V42.672c0-5.481-3.133-8.225-9.398-8.225v-1.174H45.55
	c23.497,0,35.246,5.402,35.246,16.213c0,9.478-7.441,15.195-22.323,17.153c9.243,0.939,16.84,3.407,22.794,7.399
	c5.952,3.996,8.929,9.204,8.929,15.629c0,7.598-3.193,13.413-9.575,17.446c-6.384,4.033-14.942,6.05-25.671,6.05L15.003,113.165
	L15.003,113.165z M43.199,34.448v31.724h2.351c5.795,0,10.104-1.214,12.923-3.645c2.35-2.035,3.525-6.304,3.525-12.806
	c0-5.405-1.019-9.243-3.055-11.515c-2.114-2.505-6.58-3.76-13.393-3.76L43.199,34.448L43.199,34.448z M43.199,111.991h11.75
	c5.795,0,10.104-1.488,12.924-4.464c2.35-2.429,3.524-8.381,3.524-17.858c-0.157-6.894-1.802-12.338-4.934-16.333
	c-3.134-3.994-8.539-5.992-16.214-5.992h-7.05V111.991z"/>
<path d="M94.895,33.273h65.793v17.624h-1.174c-0.705-10.965-5.601-16.449-14.686-16.449h-21.735v32.896h10.456
	c5.482,0,8.224-3.133,8.224-9.398h1.175V77.92h-1.175c0-6.265-2.742-9.397-8.224-9.397h-10.456v43.471h22.91
	c9.085,0,13.982-5.483,14.686-16.45h1.176v17.624h-66.97v-1.174c6.03,0,9.164-2.39,9.399-7.168V42.672
	c0-5.481-3.133-8.225-9.399-8.225V33.273z"/>
<path d="M233.532,99.535v13.63h-13.747l-41.474-70.492v61.096c0,5.48,3.133,8.223,9.399,8.223v1.174h-19.973v-1.174
	c6.265,0,9.398-2.741,9.398-8.223V42.672c0-5.481-3.133-8.225-9.398-8.225v-1.174h26.854l37.765,64.188v-54.8
	c0-5.477-3.133-8.214-9.399-8.214v-1.174h19.974v1.174c-6.266,0-9.399,2.743-9.399,8.225V99.535z"/>
<path d="M245.281,135.489c7.832,0,11.748-8.224,11.748-24.674V42.672c0-5.481-3.133-8.225-9.398-8.225v-1.174h37.597v1.174
	c-6.267,0-9.4,2.743-9.4,8.225v54.044c0,11.673-2.604,21.246-7.813,28.728c-5.209,7.479-12.787,11.221-22.734,11.221
	c-5.405,0-9.125-2.272-11.163-6.815l1.058-0.47C236.979,133.452,240.346,135.489,245.281,135.489z"/>
<path d="M326.313,88.492h-26.739l-5.267,15.951c-0.437,1.338-0.655,2.477-0.655,3.42c0,2.752,2.842,4.128,8.527,4.128v1.174h-19.89
	v-1.174c5.561,0,9.203-2.663,10.926-7.989l19.089-58.508l-0.996-3.056c-1.88-5.326-5.521-7.99-10.926-7.99v-1.174h22.673
	c3.367,0,5.992,2.897,7.871,8.694l20.211,62.034c1.722,5.325,5.402,7.988,11.042,7.988v1.174h-37.594v-1.174
	c5.091,0,7.637-1.331,7.637-3.994c0-0.9-0.233-2.076-0.705-3.523L326.313,88.492z M325.931,87.317l-12.978-40.023l-13.12,40.023
	H325.931z"/>
<path d="M396.606,33.273l22.91,51.568l26.317-51.568h25.611v1.174c-6.268,0-9.399,2.743-9.399,8.225l4.7,61.097
	c0.431,5.48,3.563,8.223,9.397,8.223v1.174h-37.591v-1.174c6.263,0,9.396-2.351,9.396-7.051v-1.172l-4.813-62.623l-22.968,45.01
	c2.462,4.696,3.695,9.235,3.695,13.619c0,2.584-0.275,4.384-0.823,5.399h-15.626c0.391-0.389,0.588-0.935,0.588-1.637
	c0-0.311-0.049-0.545-0.145-0.699l-26.87-60.168l-4.701,61.099v1.172c0,4.7,3.132,7.051,9.398,7.051v1.174h-19.978v-1.174
	c5.951,0,9.085-2.741,9.4-8.223l4.699-61.097c0-5.481-3.134-8.225-9.398-8.225v-1.174H396.606z"/>
<path d="M588.934,99.535v13.63h-13.744l-41.476-70.492v61.096c0,5.48,3.134,8.223,9.399,8.223v1.174H523.14v-1.174
	c6.266,0,9.399-2.741,9.399-8.223V42.672c0-5.481-3.135-8.225-9.399-8.225v-1.174h26.854l37.767,64.188v-54.8
	c0-5.477-3.136-8.214-9.398-8.214v-1.174h19.973v1.174c-6.268,0-9.4,2.743-9.4,8.225L588.934,99.535L588.934,99.535z"/>
<g>
	<path d="M32.12,139.918c-9.086,0-13.981,5.485-14.686,16.451H16.26v-17.626h65.793v17.626h-1.175
		c-0.705-10.966-5.581-16.451-14.627-16.451h-7.695v69.318c0,5.485,3.132,8.227,9.399,8.227v1.174H30.358v-1.174
		c6.266,0,9.399-2.74,9.399-8.227v-69.318H32.12L32.12,139.918z"/>
	<path d="M128.56,193.963h-26.74l-5.265,15.951c-0.438,1.337-0.655,2.477-0.655,3.421c0,2.75,2.842,4.128,8.526,4.128v1.173h-19.89
		v-1.173c5.561,0,9.202-2.665,10.926-7.989l19.089-58.509l-0.997-3.058c-1.879-5.324-5.521-7.989-10.926-7.989v-1.175h22.673
		c3.367,0,5.991,2.899,7.87,8.697l20.209,62.032c1.723,5.324,5.405,7.989,11.044,7.989v1.173h-37.593v-1.173
		c5.09,0,7.637-1.331,7.637-3.998c0-0.897-0.235-2.072-0.705-3.521L128.56,193.963z M128.178,192.789l-12.979-40.022l-13.121,40.022
		H128.178z"/>
	<path d="M179.834,138.743h39.946c10.73,0,19.288,2.038,25.672,6.11c6.383,4.074,9.575,9.947,9.575,17.623
		c0,4.47-1.609,8.507-4.826,12.11c-3.217,3.605-7.572,6.391-13.065,8.349l12.769,26.568c1.253,2.575,2.467,4.448,3.643,5.618
		c1.565,1.56,3.993,2.34,7.284,2.34v1.173H238.55c-2.966,0-5.736-2.896-8.312-8.691l-11.632-24.204h-10.575v23.497
		c0,5.485,3.133,8.227,9.399,8.227v1.173h-37.596v-1.173c6.266,0,9.399-2.74,9.399-8.227v-62.149
		c-0.234-4.778-3.368-7.169-9.399-7.169V138.743L179.834,138.743z M208.032,139.918v44.646h11.749
		c10.965,0,16.448-7.438,16.448-22.32c0-14.883-5.483-22.324-16.448-22.324L208.032,139.918L208.032,139.918z"/>
	<path d="M317.982,193.963h-26.739l-5.266,15.951c-0.437,1.337-0.654,2.477-0.654,3.421c0,2.75,2.842,4.128,8.526,4.128v1.173
		h-19.89v-1.173c5.561,0,9.203-2.665,10.926-7.989l19.09-58.509l-0.997-3.058c-1.879-5.324-5.521-7.989-10.926-7.989v-1.175h22.672
		c3.368,0,5.992,2.899,7.871,8.697l20.21,62.032c1.723,5.324,5.403,7.989,11.044,7.989v1.173h-37.594v-1.173
		c5.09,0,7.636-1.331,7.636-3.998c0-0.897-0.234-2.072-0.704-3.521L317.982,193.963z M317.602,192.789l-12.979-40.022l-13.12,40.022
		H317.602z"/>
	<path d="M394.167,139.332c-6.66,0-11.359,4.111-14.101,12.338c-1.725,5.208-2.583,14.214-2.583,27.021
		c0,11.122,0.821,20.051,2.465,26.787c2.038,8.381,6.659,12.571,13.864,12.571c7.677,0,14.766-2.782,21.268-8.343v1.527
		c-6.502,5.328-13.591,7.989-21.268,7.989c-10.416,0-18.877-3.916-25.376-11.75c-6.502-7.831-9.753-17.427-9.753-28.783
		c0-11.2,3.29-20.755,9.869-28.667c6.58-7.911,15.078-11.867,25.495-11.867c3.681,0,6.873,0.508,9.575,1.528
		c2.506,0.979,4.855,1.467,7.051,1.467c2.23,0,3.348-0.802,3.348-2.408h1.174l1.06,18.093h-1.175c0-1.253-0.295-2.74-0.882-4.465
		c-1.762-5.128-4.915-8.771-9.459-10.926C401.764,140.035,398.237,139.332,394.167,139.332z"/>
	<path d="M488.056,209.236v-34.071H459.86v34.071c0,5.485,3.133,8.227,9.397,8.227v1.173h-37.596v-1.173
		c6.267,0,9.398-2.74,9.398-8.227v-61.094c0-5.48-3.133-8.226-9.398-8.226v-1.175h23.498c3.132,0,4.699,3.133,4.699,9.399v25.848
		h28.195v-25.848c0-5.48-3.134-8.226-9.396-8.226v-1.175h37.597v1.175c-6.267,0-9.399,2.744-9.399,8.226v61.094
		c0,5.484,3.134,8.227,9.399,8.227v1.173h-37.597v-1.173C484.922,217.463,488.056,214.722,488.056,209.236z"/>
	<path d="M531.659,138.743h65.794v17.626h-1.173c-0.706-10.966-5.603-16.451-14.688-16.451h-21.736v32.897h10.456
		c5.482,0,8.226-3.133,8.226-9.398h1.175v19.975h-1.175c0-6.268-2.742-9.4-8.226-9.4h-10.456v43.473h22.909
		c9.087,0,13.982-5.482,14.688-16.448h1.176v17.621h-66.97v-1.173c6.031,0,9.165-2.392,9.399-7.167v-62.152
		c0-5.48-3.135-8.226-9.399-8.226V138.743L531.659,138.743z"/>
</g>
<g>
	<g>
		<path d="M448.404,304.56h-3.141c-1.177,0-2.06-0.361-2.648-1.08c-0.067-0.13-0.881-2.181-2.438-6.147l-10.106-25.469
			l-7.344,18.384l-5.717,14.313h-3.164c-1.187,0-2.076-0.354-2.669-1.063c-0.067-0.132-0.882-2.18-2.442-6.145l-14.385-36.156
			c-1.308-3.271-2.484-5.199-3.531-5.788c-0.916-0.588-2.485-0.882-4.707-0.882v-0.982h18.634c2.222,0,4.216,2.421,5.979,7.263
			l11.4,28.036l7.479-18.452l-3.764-9.193c-0.917-2.354-1.701-3.923-2.354-4.709c-1.112-1.307-3.107-1.961-5.984-1.961v-0.982
			h30.393v0.982c-4.187,0-6.277,1.08-6.277,3.241c0,1.048,0.195,2.063,0.588,3.044l11.331,28.026l11.321-28.006
			c0.424-1.117,0.638-2.168,0.638-3.153c0-2.103-1.913-3.152-5.739-3.152v-0.982h12.684v0.982c-2.813,0.066-5.037,2.289-6.672,6.67
			l-11.635,29.054L448.404,304.56z"/>
		<path d="M497.943,305.05c-8.828,0-15.631-2.257-20.404-6.77c-4.709-4.513-7.063-10.922-7.063-19.229
			c0-8.24,2.387-14.648,7.16-19.228c4.773-4.514,11.543-6.77,20.307-6.77s15.533,2.256,20.308,6.77
			c4.772,4.578,7.161,10.986,7.161,19.228h-39.24c0,11.575,0.654,18.279,1.962,20.11c2.419,3.271,5.689,4.905,9.81,4.905
			c4.904,0,9.517-1.209,13.832-3.63c4.316-2.419,7.75-5.594,10.301-9.516l0.785,0.49c-2.616,4.119-6.147,7.424-10.594,9.906
			C507.818,303.807,503.045,305.05,497.943,305.05z M486.172,278.072h23.544c0-9.939-0.491-15.958-1.472-18.051
			c-1.831-3.989-5.266-5.984-10.301-5.984c-4.971,0-8.176,1.667-9.613,5.002C486.891,262.507,486.172,268.85,486.172,278.072z"/>
		<path d="M547.975,256.294c3.271-2.158,6.541-3.237,9.811-3.237c7.716,0,13.896,2.321,18.541,6.966
			c4.645,4.578,6.965,10.922,6.965,19.03c0,8.109-2.289,14.453-6.867,19.032c-4.645,4.578-10.855,6.865-18.639,6.865
			c-3.663,0-6.934-1.078-9.811-3.236c-2.158-1.697-4.186-2.551-6.082-2.551c-1.113,0-2.535,0.899-4.268,2.699
			c-1.734,1.797-2.698,2.697-2.895,2.697h-2.453V237.85c0-4.577-2.615-6.867-7.848-6.867v-0.981h19.62
			c2.615,0,3.925,2.618,3.925,7.85V256.294L547.975,256.294z M547.975,300.438c3.205,2.354,6.475,3.53,9.811,3.53
			c4.25,0,7.128-1.862,8.633-5.592c0.784-2.092,1.178-8.535,1.178-19.325c0-11.116-0.394-17.592-1.178-19.424
			c-1.568-3.729-4.447-5.592-8.633-5.592c-3.336,0-6.605,1.177-9.811,3.531v29.43V300.438z"/>
	</g>
	<g>
		<path fill="#FFFFFF" d="M446.857,304.56h-3.139c-1.177,0-2.061-0.361-2.648-1.08c-0.067-0.13-0.881-2.181-2.438-6.147
			l-10.107-25.469l-7.342,18.384l-5.717,14.313h-3.164c-1.186,0-2.076-0.354-2.669-1.063c-0.067-0.132-0.883-2.18-2.442-6.145
			l-14.385-36.155c-1.31-3.27-2.486-5.199-3.533-5.788c-0.916-0.588-2.484-0.882-4.709-0.882v-0.982h18.635
			c2.224,0,4.216,2.421,5.98,7.263l11.4,28.036l7.477-18.452l-3.762-9.193c-0.916-2.354-1.701-3.923-2.354-4.709
			c-1.113-1.307-3.107-1.961-5.984-1.961v-0.982h30.393v0.982c-4.186,0-6.277,1.08-6.277,3.241c0,1.048,0.197,2.063,0.588,3.044
			l11.331,28.026l11.321-28.006c0.424-1.117,0.637-2.168,0.637-3.153c0-2.103-1.914-3.152-5.739-3.152v-0.982h12.683v0.982
			c-2.813,0.066-5.035,2.289-6.67,6.67l-11.636,29.054L446.857,304.56z"/>
		<path fill="#FFFFFF" d="M496.398,305.05c-8.83,0-15.631-2.257-20.405-6.77c-4.708-4.513-7.063-10.922-7.063-19.229
			c0-8.24,2.389-14.648,7.162-19.228c4.774-4.514,11.542-6.77,20.307-6.77s15.533,2.256,20.308,6.77
			c4.772,4.578,7.162,10.986,7.162,19.228h-39.241c0,11.575,0.654,18.279,1.962,20.11c2.42,3.271,5.69,4.905,9.812,4.905
			c4.904,0,9.516-1.209,13.832-3.63c4.315-2.419,7.75-5.594,10.3-9.516l0.784,0.49c-2.615,4.119-6.146,7.424-10.594,9.906
			C506.273,303.807,501.5,305.05,496.398,305.05z M484.626,278.072h23.544c0-9.939-0.49-15.958-1.471-18.051
			c-1.832-3.989-5.266-5.984-10.301-5.984c-4.971,0-8.176,1.667-9.614,5.002C485.346,262.507,484.626,268.85,484.626,278.072z"/>
		<path fill="#FFFFFF" d="M546.43,256.294c3.271-2.158,6.541-3.237,9.811-3.237c7.716,0,13.896,2.321,18.541,6.966
			c4.644,4.578,6.965,10.922,6.965,19.03c0,8.109-2.29,14.453-6.867,19.032c-4.645,4.578-10.857,6.865-18.639,6.865
			c-3.664,0-6.934-1.078-9.811-3.236c-2.158-1.697-4.187-2.551-6.082-2.551c-1.113,0-2.535,0.899-4.268,2.699
			c-1.732,1.797-2.698,2.697-2.895,2.697h-2.453V237.85c0-4.577-2.615-6.867-7.848-6.867v-0.981h19.62
			c2.616,0,3.925,2.618,3.925,7.85V256.294L546.43,256.294z M546.43,300.438c3.204,2.354,6.475,3.53,9.811,3.53
			c4.25,0,7.128-1.862,8.633-5.592c0.784-2.092,1.177-8.535,1.177-19.325c0-11.116-0.393-17.592-1.177-19.424
			c-1.57-3.729-4.448-5.592-8.633-5.592c-3.336,0-6.606,1.177-9.811,3.531v29.43V300.438z"/>
	</g>
</g>
<g>
	<path d="M479.103,33.447h39.503v1.173c-6.584,0-9.876,2.735-9.876,8.206v60.963c0,5.472,3.292,8.206,9.876,8.206v1.173h-39.503
		v-1.173c6.583,0,9.876-2.734,9.876-8.206V42.825c0-5.47-3.293-8.206-9.876-8.206V33.447z M492.682,28.758l1.234-3.517
		c3.045-8.362,5.062-13.131,6.05-14.303c0.493-0.625,0.945-0.938,1.357-0.938h16.048v1.172c-0.411,0-1.256,0.293-2.531,0.879
		c-1.398,0.625-2.633,1.465-3.703,2.521l-14.752,14.186H492.682z"/>
</g>
<g>
	<g>
		<path d="M66.089,255.776v31.768c0,2.471,1.412,3.706,4.235,3.706v0.529H59.735c-0.354,0-0.75-0.282-1.191-0.847
			c-0.441-0.565-0.68-0.848-0.715-0.848c-1.906,1.271-3.742,1.906-5.506,1.906c-4.165,0-7.501-1.244-10.007-3.732
			c-2.506-2.489-3.759-5.921-3.759-10.298s1.244-7.801,3.732-10.271c2.489-2.471,5.833-3.707,10.033-3.707
			c1.765,0,3.53,0.583,5.294,1.748v-9.954c0-2.471-1.412-3.706-4.235-3.706v-0.529h10.589
			C65.383,251.541,66.089,252.953,66.089,255.776z M47.028,277.961c0,6,0.212,9.494,0.635,10.482c0.847,2.013,2.4,3.019,4.659,3.019
			c1.835,0,3.636-0.653,5.4-1.959c-0.07-0.636-0.106-1.307-0.106-2.013v-21.072c-1.729-1.271-3.494-1.905-5.294-1.905
			c-2.294,0-3.848,1.006-4.659,3.018C47.24,268.66,47.028,272.136,47.028,277.961z"/>
		<path d="M91.088,292.044c-4.766,0-8.436-1.218-11.013-3.653c-2.542-2.436-3.812-5.895-3.812-10.377
			c0-4.447,1.288-7.906,3.865-10.378c2.577-2.436,6.229-3.653,10.96-3.653c4.729,0,8.383,1.218,10.96,3.653
			c2.576,2.472,3.865,5.931,3.865,10.378H84.734c0,6.247,0.353,9.865,1.059,10.854c1.306,1.765,3.071,2.647,5.295,2.647
			c2.647,0,5.136-0.652,7.465-1.959c2.33-1.306,4.184-3.018,5.56-5.136l0.424,0.265c-1.412,2.224-3.318,4.007-5.718,5.348
			C96.418,291.373,93.841,292.044,91.088,292.044z M84.734,277.484h12.707c0-5.365-0.265-8.613-0.794-9.742
			c-0.989-2.153-2.842-3.229-5.56-3.229c-2.683,0-4.412,0.899-5.188,2.7C85.122,269.083,84.734,272.507,84.734,277.484z"/>
		<path d="M134.141,264.512h0.529l0.477,7.465h-0.529c-0.142-1.323-0.732-2.753-1.773-4.288c-0.618-0.9-1.598-1.655-2.938-2.264
			c-1.342-0.609-2.93-0.913-4.766-0.913c-1.659,0-2.974,0.432-3.944,1.295s-1.456,1.771-1.456,2.722c0,1.197,0.407,2.096,1.22,2.695
			c0.742,0.563,1.732,1.162,2.971,1.797l7.947,3.694c3.309,1.771,4.964,4.075,4.964,6.91c0,5.612-4.235,8.418-12.707,8.418
			c-1.323,0-2.577-0.177-3.759-0.529c-1.624-0.494-3.071-1.253-4.342-2.276c-0.441-0.354-0.883-0.53-1.323-0.53
			c-0.883,0-1.324,0.989-1.324,2.966h-0.529l0.212-8.154h0.529c0,0.529,0.194,1.2,0.583,2.012c1.111,2.313,2.779,3.972,5.003,4.978
			c1.482,0.671,3.133,1.006,4.95,1.006c3.601,0,5.4-1.341,5.4-4.024c0-1.905-1.059-3.405-3.177-4.5l-7.465-3.389
			c-1.836-0.829-3.239-1.87-4.209-3.124c-0.9-1.182-1.351-2.559-1.351-4.129c0-2.612,1.085-4.659,3.256-6.143
			c2.136-1.482,4.986-2.224,8.551-2.224c1.694,0,3.15,0.229,4.368,0.688c1.13,0.441,2.158,0.662,3.084,0.662
			C133.519,265.333,134.035,265.059,134.141,264.512z"/>
		<path d="M177.724,291.779h-10.589c-0.354,0-0.741-0.282-1.165-0.847c-0.424-0.565-0.671-0.848-0.741-0.848
			c-1.801,1.307-3.989,1.959-6.565,1.959c-4.483,0-8.074-1.006-10.774-3.018s-4.051-4.271-4.051-6.777s1.342-4.721,4.024-6.645
			s6.282-2.886,10.801-2.886c2.188,0,4.306,0.441,6.354,1.323v-1.323c0-5.471-2.295-8.206-6.883-8.206
			c-2.93,0-5.736,0.759-8.419,2.276l-0.317-0.477c2.823-1.553,5.735-2.33,8.736-2.33c10.235,0,15.354,4.678,15.354,14.031v9.53
			c0,2.471,1.411,3.706,4.235,3.706V291.779z M165.017,274.625c-2.012-0.918-4.13-1.377-6.354-1.377
			c-2.612,0-4.447,0.989-5.507,2.965c-0.564,0.953-0.847,2.965-0.847,6.036c0,3.742,0.459,6.178,1.377,7.307
			c1.094,1.307,2.753,1.959,4.977,1.959c2.683,0,4.835-0.671,6.459-2.012c-0.07-2.188-0.105-4.289-0.105-6.301V274.625z"/>
		<path d="M214.318,269.277c0,1.13-0.406,2.118-1.218,2.965c-0.813,0.848-1.818,1.271-3.019,1.271c-1.13,0-2.117-0.405-2.965-1.218
			c-0.847-0.812-1.271-1.817-1.271-3.018l0.212-2.118c0-1.411-0.671-2.117-2.012-2.117c-2.4,0-4.624,1.164-6.672,3.494v19.008
			c0,2.471,1.412,3.706,4.236,3.706v0.529h-16.943v-0.529c2.824,0,4.236-1.235,4.236-3.706v-19.061c0-2.471-1.412-3.706-4.236-3.706
			v-0.53h10.59c0.317,0,0.635,0.283,0.953,0.848c0.388,0.601,0.67,1.165,0.847,1.694l0.317,0.9c1.377-1.271,2.612-2.171,3.706-2.701
			c1.412-0.67,3.389-1.006,5.931-1.006c1.905,0,3.6,0.46,5.082,1.377C213.577,266.277,214.318,267.583,214.318,269.277z"/>
		<path d="M250.436,269.277c0,1.13-0.406,2.118-1.218,2.965c-0.813,0.848-1.818,1.271-3.019,1.271c-1.13,0-2.117-0.405-2.965-1.218
			c-0.847-0.812-1.271-1.817-1.271-3.018l0.212-2.118c0-1.411-0.671-2.117-2.012-2.117c-2.4,0-4.624,1.164-6.672,3.494v19.008
			c0,2.471,1.412,3.706,4.236,3.706v0.529h-16.943v-0.529c2.824,0,4.236-1.235,4.236-3.706v-19.061c0-2.471-1.412-3.706-4.236-3.706
			v-0.53h10.59c0.317,0,0.635,0.283,0.953,0.848c0.388,0.601,0.67,1.165,0.847,1.694l0.317,0.9c1.377-1.271,2.612-2.171,3.706-2.701
			c1.412-0.67,3.389-1.006,5.931-1.006c1.905,0,3.6,0.46,5.082,1.377C249.694,266.277,250.436,267.583,250.436,269.277z"/>
		<path d="M270.669,292.044c-4.766,0-8.437-1.218-11.013-3.653c-2.541-2.436-3.813-5.895-3.813-10.377
			c0-4.447,1.288-7.906,3.865-10.378c2.577-2.436,6.229-3.653,10.96-3.653c4.729,0,8.383,1.218,10.96,3.653
			c2.576,2.472,3.865,5.931,3.865,10.378c0,4.482-1.271,7.941-3.813,10.377C279.104,290.826,275.434,292.044,270.669,292.044z
			 M270.669,291.514c2.683,0,4.412-0.936,5.188-2.807c0.776-1.905,1.165-5.471,1.165-10.694s-0.389-8.789-1.165-10.695
			c-0.776-1.87-2.506-2.806-5.188-2.806c-3.036,0-4.889,1.164-5.56,3.494c-0.529,1.871-0.794,5.206-0.794,10.007
			s0.265,8.136,0.794,10.007C265.78,290.349,267.633,291.514,270.669,291.514z"/>
		<path d="M303.08,255.776v31.768c0,2.471,1.412,3.706,4.235,3.706v0.529h-16.942v-0.529c2.823,0,4.235-1.235,4.235-3.706v-31.768
			c0-2.471-1.412-3.706-4.235-3.706v-0.529h10.589C302.374,251.541,303.08,252.953,303.08,255.776z"/>
		<path d="M326.49,255.776v31.768c0,2.471,1.412,3.706,4.235,3.706v0.529h-16.942v-0.529c2.823,0,4.235-1.235,4.235-3.706v-31.768
			c0-2.471-1.412-3.706-4.235-3.706v-0.529h10.589C325.784,251.541,326.49,252.953,326.49,255.776z"/>
		<path d="M351.489,292.044c-4.766,0-8.437-1.218-11.013-3.653c-2.541-2.436-3.813-5.895-3.813-10.377
			c0-4.447,1.288-7.906,3.865-10.378c2.577-2.436,6.229-3.653,10.96-3.653c4.729,0,8.383,1.218,10.96,3.653
			c2.576,2.472,3.865,5.931,3.865,10.378c0,4.482-1.271,7.941-3.813,10.377C359.925,290.826,356.254,292.044,351.489,292.044z
			 M351.489,291.514c2.683,0,4.412-0.936,5.188-2.807c0.776-1.905,1.165-5.471,1.165-10.694s-0.389-8.789-1.165-10.695
			c-0.776-1.87-2.506-2.806-5.188-2.806c-3.036,0-4.889,1.164-5.56,3.494c-0.529,1.871-0.794,5.206-0.794,10.007
			s0.265,8.136,0.794,10.007C346.601,290.349,348.453,291.514,351.489,291.514z"/>
	</g>
	<g>
		<path fill="#FFFFFF" d="M64.089,253.776v31.768c0,2.471,1.412,3.706,4.235,3.706v0.529H57.735c-0.354,0-0.75-0.282-1.191-0.847
			c-0.441-0.565-0.68-0.848-0.715-0.848c-1.906,1.271-3.742,1.906-5.506,1.906c-4.165,0-7.501-1.244-10.007-3.732
			c-2.506-2.489-3.759-5.921-3.759-10.298s1.244-7.801,3.732-10.271c2.489-2.471,5.833-3.707,10.033-3.707
			c1.765,0,3.53,0.583,5.294,1.748v-9.954c0-2.471-1.412-3.706-4.235-3.706v-0.529h10.589
			C63.383,249.541,64.089,250.953,64.089,253.776z M45.028,275.961c0,6,0.212,9.494,0.635,10.482c0.847,2.013,2.4,3.019,4.659,3.019
			c1.835,0,3.636-0.653,5.4-1.959c-0.07-0.636-0.106-1.307-0.106-2.013v-21.072c-1.729-1.271-3.494-1.905-5.294-1.905
			c-2.294,0-3.848,1.006-4.659,3.018C45.24,266.66,45.028,270.136,45.028,275.961z"/>
		<path fill="#FFFFFF" d="M89.088,290.044c-4.766,0-8.436-1.218-11.013-3.653c-2.542-2.436-3.812-5.895-3.812-10.377
			c0-4.447,1.288-7.906,3.865-10.378c2.577-2.436,6.229-3.653,10.96-3.653c4.729,0,8.383,1.218,10.96,3.653
			c2.576,2.472,3.865,5.931,3.865,10.378H82.734c0,6.247,0.353,9.865,1.059,10.854c1.306,1.765,3.071,2.647,5.295,2.647
			c2.647,0,5.136-0.652,7.465-1.959c2.33-1.306,4.184-3.018,5.56-5.136l0.424,0.265c-1.412,2.224-3.318,4.007-5.718,5.348
			C94.418,289.373,91.841,290.044,89.088,290.044z M82.734,275.484h12.707c0-5.365-0.265-8.613-0.794-9.742
			c-0.989-2.153-2.842-3.229-5.56-3.229c-2.683,0-4.412,0.899-5.188,2.7C83.122,267.083,82.734,270.507,82.734,275.484z"/>
		<path fill="#FFFFFF" d="M132.141,262.512h0.529l0.477,7.465h-0.529c-0.142-1.323-0.732-2.753-1.773-4.288
			c-0.618-0.9-1.598-1.655-2.938-2.264c-1.342-0.609-2.93-0.913-4.766-0.913c-1.659,0-2.974,0.432-3.944,1.295
			s-1.456,1.771-1.456,2.722c0,1.197,0.407,2.096,1.22,2.695c0.742,0.563,1.732,1.162,2.971,1.797l7.947,3.694
			c3.309,1.771,4.964,4.075,4.964,6.91c0,5.612-4.235,8.418-12.707,8.418c-1.323,0-2.577-0.177-3.759-0.529
			c-1.624-0.494-3.071-1.253-4.342-2.276c-0.441-0.354-0.883-0.53-1.323-0.53c-0.883,0-1.324,0.989-1.324,2.966h-0.529l0.212-8.154
			h0.529c0,0.529,0.194,1.2,0.583,2.012c1.111,2.313,2.779,3.972,5.003,4.978c1.482,0.671,3.133,1.006,4.95,1.006
			c3.601,0,5.4-1.341,5.4-4.024c0-1.905-1.059-3.405-3.177-4.5l-7.465-3.389c-1.836-0.829-3.239-1.87-4.209-3.124
			c-0.9-1.182-1.351-2.559-1.351-4.129c0-2.612,1.085-4.659,3.256-6.143c2.136-1.482,4.986-2.224,8.551-2.224
			c1.694,0,3.15,0.229,4.368,0.688c1.13,0.441,2.158,0.662,3.084,0.662C131.519,263.333,132.035,263.059,132.141,262.512z"/>
		<path fill="#FFFFFF" d="M175.724,289.779h-10.589c-0.354,0-0.741-0.282-1.165-0.847c-0.424-0.565-0.671-0.848-0.741-0.848
			c-1.801,1.307-3.989,1.959-6.565,1.959c-4.483,0-8.074-1.006-10.774-3.018s-4.051-4.271-4.051-6.777s1.342-4.721,4.024-6.645
			s6.282-2.886,10.801-2.886c2.188,0,4.306,0.441,6.354,1.323v-1.323c0-5.471-2.295-8.206-6.883-8.206
			c-2.93,0-5.736,0.759-8.419,2.276l-0.317-0.477c2.823-1.553,5.735-2.33,8.736-2.33c10.235,0,15.354,4.678,15.354,14.031v9.53
			c0,2.471,1.411,3.706,4.235,3.706V289.779z M163.017,272.625c-2.012-0.918-4.13-1.377-6.354-1.377
			c-2.612,0-4.447,0.989-5.507,2.965c-0.564,0.953-0.847,2.965-0.847,6.036c0,3.742,0.459,6.178,1.377,7.307
			c1.094,1.307,2.753,1.959,4.977,1.959c2.683,0,4.835-0.671,6.459-2.012c-0.07-2.188-0.105-4.289-0.105-6.301V272.625z"/>
		<path fill="#FFFFFF" d="M212.318,267.277c0,1.13-0.406,2.118-1.218,2.965c-0.813,0.848-1.818,1.271-3.019,1.271
			c-1.13,0-2.117-0.405-2.965-1.218c-0.847-0.812-1.271-1.817-1.271-3.018l0.212-2.118c0-1.411-0.671-2.117-2.012-2.117
			c-2.4,0-4.624,1.164-6.672,3.494v19.008c0,2.471,1.412,3.706,4.236,3.706v0.529h-16.943v-0.529c2.824,0,4.236-1.235,4.236-3.706
			v-19.061c0-2.471-1.412-3.706-4.236-3.706v-0.53h10.59c0.317,0,0.635,0.283,0.953,0.848c0.388,0.601,0.67,1.165,0.847,1.694
			l0.317,0.9c1.377-1.271,2.612-2.171,3.706-2.701c1.412-0.67,3.389-1.006,5.931-1.006c1.905,0,3.6,0.46,5.082,1.377
			C211.577,264.277,212.318,265.583,212.318,267.277z"/>
		<path fill="#FFFFFF" d="M248.436,267.277c0,1.13-0.406,2.118-1.218,2.965c-0.813,0.848-1.818,1.271-3.019,1.271
			c-1.13,0-2.117-0.405-2.965-1.218c-0.847-0.812-1.271-1.817-1.271-3.018l0.212-2.118c0-1.411-0.671-2.117-2.012-2.117
			c-2.4,0-4.624,1.164-6.672,3.494v19.008c0,2.471,1.412,3.706,4.236,3.706v0.529h-16.943v-0.529c2.824,0,4.236-1.235,4.236-3.706
			v-19.061c0-2.471-1.412-3.706-4.236-3.706v-0.53h10.59c0.317,0,0.635,0.283,0.953,0.848c0.388,0.601,0.67,1.165,0.847,1.694
			l0.317,0.9c1.377-1.271,2.612-2.171,3.706-2.701c1.412-0.67,3.389-1.006,5.931-1.006c1.905,0,3.6,0.46,5.082,1.377
			C247.694,264.277,248.436,265.583,248.436,267.277z"/>
		<path fill="#FFFFFF" d="M268.669,290.044c-4.766,0-8.437-1.218-11.013-3.653c-2.541-2.436-3.813-5.895-3.813-10.377
			c0-4.447,1.288-7.906,3.865-10.378c2.577-2.436,6.229-3.653,10.96-3.653c4.729,0,8.383,1.218,10.96,3.653
			c2.576,2.472,3.865,5.931,3.865,10.378c0,4.482-1.271,7.941-3.813,10.377C277.104,288.826,273.434,290.044,268.669,290.044z
			 M268.669,289.514c2.683,0,4.412-0.936,5.188-2.807c0.776-1.905,1.165-5.471,1.165-10.694s-0.389-8.789-1.165-10.695
			c-0.776-1.87-2.506-2.806-5.188-2.806c-3.036,0-4.889,1.164-5.56,3.494c-0.529,1.871-0.794,5.206-0.794,10.007
			s0.265,8.136,0.794,10.007C263.78,288.349,265.633,289.514,268.669,289.514z"/>
		<path fill="#FFFFFF" d="M301.08,253.776v31.768c0,2.471,1.412,3.706,4.235,3.706v0.529h-16.942v-0.529
			c2.823,0,4.235-1.235,4.235-3.706v-31.768c0-2.471-1.412-3.706-4.235-3.706v-0.529h10.589
			C300.374,249.541,301.08,250.953,301.08,253.776z"/>
		<path fill="#FFFFFF" d="M324.49,253.776v31.768c0,2.471,1.412,3.706,4.235,3.706v0.529h-16.942v-0.529
			c2.823,0,4.235-1.235,4.235-3.706v-31.768c0-2.471-1.412-3.706-4.235-3.706v-0.529h10.589
			C323.784,249.541,324.49,250.953,324.49,253.776z"/>
		<path fill="#FFFFFF" d="M349.489,290.044c-4.766,0-8.437-1.218-11.013-3.653c-2.541-2.436-3.813-5.895-3.813-10.377
			c0-4.447,1.288-7.906,3.865-10.378c2.577-2.436,6.229-3.653,10.96-3.653c4.729,0,8.383,1.218,10.96,3.653
			c2.576,2.472,3.865,5.931,3.865,10.378c0,4.482-1.271,7.941-3.813,10.377C357.925,288.826,354.254,290.044,349.489,290.044z
			 M349.489,289.514c2.683,0,4.412-0.936,5.188-2.807c0.776-1.905,1.165-5.471,1.165-10.694s-0.389-8.789-1.165-10.695
			c-0.776-1.87-2.506-2.806-5.188-2.806c-3.036,0-4.889,1.164-5.56,3.494c-0.529,1.871-0.794,5.206-0.794,10.007
			s0.265,8.136,0.794,10.007C344.601,288.349,346.453,289.514,349.489,289.514z"/>
	</g>
</g>
</svg>
