<?xml version="1.0" encoding="utf-8"?>
<!-- Generator: Adobe Illustrator 16.0.0, SVG Export Plug-In . SVG Version: 6.00 Build 0)  -->
<!DOCTYPE svg PUBLIC "-//W3C//DTD SVG 1.1//EN" "http://www.w3.org/Graphics/SVG/1.1/DTD/svg11.dtd">
<svg version="1.1" id="Layer_1" xmlns="http://www.w3.org/2000/svg" xmlns:xlink="http://www.w3.org/1999/xlink" x="0px" y="0px"
	 width="212px" height="130px" viewBox="0 0 212 130" enable-background="new 0 0 212 130" xml:space="preserve">
<g>
	<path fill="#FFFFFF" d="M31.651,8.185h30.537c6.452,0,12.663,1.881,18.633,5.642c1.242,0.794,2.76,1.984,4.555,3.571
		c2.139,2.105,3.45,3.537,3.934,4.296c1.449,1.967,2.501,3.606,3.157,4.917c2.726,5.142,4.089,10.576,4.089,16.304
		c0,0.828-0.069,1.812-0.207,2.95c0.345,0.207,1.587,1.415,3.727,3.623c3.761,4.176,6.573,8.816,8.437,13.923
		c1.69,4.797,2.536,9.541,2.536,14.233v0.725c0,8.627-2.554,16.787-7.66,24.481c-1.104,1.588-2.484,3.296-4.141,5.124
		c-2.001,2.07-3.347,3.33-4.037,3.778c-1.829,1.553-3.675,2.882-5.538,3.985c-2.381,1.415-4.796,2.571-7.246,3.468
		c-1.691,0.656-3.848,1.277-6.47,1.863c-3.002,0.587-5.314,0.88-6.936,0.88c0,0.035-0.086,0.052-0.259,0.052h-1.087
		c-3.934,0-7.505-1.139-10.714-3.416c-0.725-0.482-1.881-1.569-3.468-3.261c-2.277-2.656-3.744-5.331-4.399-8.022
		c-0.345-1.139-0.656-2.536-0.932-4.192c-0.276-2.691-0.414-5.021-0.414-6.987c-0.035-11.869-0.052-21.324-0.052-28.363
		c0-10.834,0.017-23.964,0.052-39.388c0-2.967-0.932-5.866-2.795-8.695c-1.208-1.69-2.674-3.123-4.399-4.296
		c-2.726-1.69-5.607-2.536-8.644-2.536c-4.313,0-8.195,1.604-11.646,4.813c-3.071,3.175-4.606,6.85-4.606,11.024v71.219
		c0,3.451,0.345,6.229,1.035,8.333c0.897,3.244,2.553,6.35,4.969,9.316c1.69,1.795,2.95,2.898,3.778,3.313
		c0.862,0.483,1.415,0.725,1.656,0.725v0.052c-1.173,0-2.795-0.534-4.865-1.604c-4.486-2.656-7.747-6.47-9.782-11.438
		c-0.38-0.862-0.759-2.19-1.139-3.985C11.104,103.574,11,101.85,11,99.434V27.697c0-2.622,0.776-5.469,2.329-8.54
		c0.621-1.104,1.449-2.294,2.484-3.571c1.346-1.449,2.329-2.381,2.95-2.795c1.139-0.897,2.104-1.535,2.898-1.915
		C24.94,9.082,28.27,8.185,31.651,8.185z M31.858,17.242h0.155c3.485,0,6.47,1.484,8.954,4.451c1.553,2.174,2.329,4.417,2.329,6.729
		v72.254c0,7.108,2.381,13.146,7.143,18.115c1.794,1.622,3.174,2.554,4.141,2.795h0.155v0.052c-1.07,0-2.64-0.5-4.71-1.501
		c-1.242-0.689-2.536-1.639-3.882-2.847c-0.552-0.448-1.294-1.207-2.226-2.277c-2.484-3.002-4.089-6.211-4.813-9.627
		c-0.311-1.311-0.466-2.898-0.466-4.762V28.422c0-1.897-0.846-3.588-2.536-5.072c-1.312-0.932-2.605-1.397-3.882-1.397h-0.155
		c-0.069,0-0.121-0.017-0.155-0.052c-0.035,0.035-0.069,0.052-0.104,0.052H31.6c-1.656,0-3.244,0.742-4.762,2.226
		c-0.863,1.173-1.38,2.277-1.553,3.313c-0.069,0.518-0.104,1.156-0.104,1.915v70.132c0,3.52,0.293,6.229,0.88,8.126
		c0.518,1.829,1.087,3.399,1.708,4.71c0.725,1.415,1.673,2.898,2.847,4.451c2.174,2.691,4.192,4.279,6.056,4.762v0.052
		c-1.173,0-2.83-0.552-4.969-1.656c-1.208-0.655-2.605-1.708-4.192-3.157c-1.794-1.863-2.933-3.261-3.416-4.192
		c-2.381-3.691-3.571-7.384-3.571-11.076V28.422c0-3.002,1.208-5.71,3.623-8.126C26.458,18.26,29.029,17.242,31.858,17.242z
		 M31.91,26.248c1,0,1.742,0.552,2.226,1.656c0.069,0.242,0.104,0.432,0.104,0.569v71.426c0,3.451,0.345,6.229,1.035,8.333
		c0.932,3.244,2.57,6.35,4.917,9.316c1.69,1.795,2.984,2.898,3.882,3.313c0.828,0.483,1.38,0.725,1.656,0.725v0.052
		c-1.277,0-2.985-0.586-5.124-1.76c-0.897-0.482-2.053-1.328-3.468-2.536c-1.622-1.553-2.726-2.76-3.313-3.623
		c-2.83-4.037-4.244-8.074-4.244-12.111V28.474c0-0.828,0.483-1.483,1.449-1.967C31.203,26.403,31.496,26.317,31.91,26.248z
		 M44.953,12.843c1.483,1.312,2.519,2.381,3.105,3.209l0.776,1.035h12.629c7.729,0,14.285,2.898,19.668,8.695
		c1.518,1.829,2.519,3.244,3.002,4.244c2.277,3.934,3.416,8.229,3.416,12.888c0,5.763-1.863,10.938-5.59,15.527
		c-0.587,0.656-1.173,1.26-1.76,1.812c-1.76,1.622-3.295,2.778-4.606,3.468c-4.21,2.416-8.799,3.623-13.768,3.623h-9.42v4.296
		h11.387c2.036,0,4.727-0.518,8.074-1.553c2.381-0.828,4.468-1.776,6.263-2.847c5.486-3.416,9.437-8.126,11.853-14.13
		c1.242-3.381,1.863-6.814,1.863-10.3c0-7.039-2.312-13.422-6.936-19.15c-1.519-1.725-3.02-3.191-4.503-4.399
		c-1.863-1.38-3.451-2.381-4.762-3.002c-1.242-0.69-2.864-1.38-4.865-2.07c-3.037-0.862-5.349-1.294-6.936-1.294
		c-0.414-0.034-1.639-0.052-3.675-0.052H44.953z M51.216,21.745c0.448,1.277,0.776,2.623,0.983,4.037
		c0,0.104,0.017,0.242,0.052,0.414h9.989c3.036,0,6.038,0.966,9.006,2.898c1.863,1.312,3.398,2.898,4.606,4.762
		c1.725,2.864,2.588,5.797,2.588,8.799v0.362c0,3.175-0.966,6.125-2.898,8.851c-1.242,1.553-2.433,2.709-3.571,3.468
		c-3.071,1.967-6.332,2.95-9.782,2.95h-9.782v4.399h9.679c5.106,0,9.696-1.587,13.768-4.762c1.587-1.449,2.622-2.536,3.105-3.261
		c2.622-3.52,3.934-7.436,3.934-11.749v-0.155c0-5.21-1.829-9.903-5.486-14.078c-1.449-1.483-2.623-2.519-3.52-3.105
		c-3.727-2.553-7.729-3.83-12.008-3.83H51.216z M52.406,30.854v4.658h9.109c3.52,0,5.935,1.433,7.246,4.296
		c0.345,0.863,0.518,1.726,0.518,2.588c0,2.07-0.828,3.813-2.484,5.228c-0.621,0.483-1.294,0.863-2.019,1.139
		c-0.932,0.311-2.157,0.466-3.675,0.466h-8.695v4.451h8.799c4.175,0,7.367-1.155,9.575-3.468c1.346-1.242,2.277-2.933,2.795-5.072
		c0.138-0.689,0.207-1.362,0.207-2.019v-0.466c0-2.622-0.915-5.089-2.743-7.401c-2.45-2.933-5.676-4.399-9.679-4.399H52.406z
		 M52.406,40.171v4.451h9.265c1.483,0,2.433-0.534,2.847-1.604c0.034-0.241,0.052-0.448,0.052-0.621
		c0-1.242-0.776-1.983-2.329-2.226c-0.035,0-0.19,0-0.466,0H52.406z M73.472,74.435c0.897,1.346,1.346,2.847,1.346,4.503v0.052
		c0,3.037-1.484,5.142-4.451,6.314c-1.07,0.346-2.122,0.518-3.157,0.518H52.406v4.296h14.596c3.657,0,6.763-1.466,9.316-4.399
		c1.794-2.277,2.691-4.727,2.691-7.35v-0.466c0-1.76-0.449-3.468-1.346-5.124C76.56,73.331,75.162,73.883,73.472,74.435z
		 M52.406,76.401v4.813h14.078c1.932,0,3.088-0.396,3.468-1.19c0.138-0.345,0.207-0.655,0.207-0.932v-0.104
		c0-1.311-0.466-2.139-1.397-2.484c-0.345-0.104-0.811-0.172-1.397-0.207C63.879,76.333,58.893,76.367,52.406,76.401z
		 M81.701,70.501c1.346,2.347,2.019,4.813,2.019,7.401v0.414c0,4.348-1.674,8.265-5.021,11.749c-3.313,3.141-7.367,4.71-12.163,4.71
		H52.562c0.034,1.277,0.138,2.743,0.311,4.399h14.596c3.45,0,6.849-0.932,10.196-2.795c4.278-2.553,7.35-6.245,9.213-11.076
		c0.828-2.346,1.242-4.727,1.242-7.143v-0.207c0-3.657-0.966-7.039-2.898-10.145C84.013,68.845,82.84,69.742,81.701,70.501z
		 M88.585,64.394c2.829,4.141,4.244,8.713,4.244,13.716c0,5.314-1.536,10.214-4.606,14.699c-0.587,0.932-1.743,2.277-3.468,4.037
		c-0.035,0-0.414,0.346-1.139,1.035c-4.969,4.003-10.455,6.004-16.459,6.004H53.493v0.052c0.345,1.691,0.707,3.037,1.087,4.037
		c0,0.104,0.034,0.155,0.104,0.155H66.64c9.04,0,16.683-3.364,22.929-10.093c5.003-5.935,7.505-12.577,7.505-19.927
		c0-6.314-1.933-12.076-5.797-17.287L89.672,63.1C88.981,63.928,88.619,64.359,88.585,64.394z M95.417,51.402
		c0,0.276-0.483,1.726-1.449,4.348c-0.035,0-0.121,0.207-0.259,0.621c2.588,3.002,4.555,6.28,5.9,9.834
		c1.415,3.899,2.122,7.867,2.122,11.904c0,7.902-2.519,15.113-7.557,21.635c-2.105,2.484-3.985,4.348-5.642,5.59
		c-1.587,1.208-3.175,2.277-4.762,3.209c-1.794,0.932-3.761,1.777-5.9,2.536c-1.139,0.38-2.709,0.76-4.71,1.139
		c-1.829,0.38-4.331,0.569-7.505,0.569h-8.229c2.726,3.002,6.142,4.503,10.248,4.503h0.259c4.692,0,9.644-1.087,14.854-3.261
		c9.454-4.278,16.252-11.128,20.393-20.548c2.139-5.003,3.209-9.972,3.209-14.906v-1.139c0-5.521-1.38-11.076-4.141-16.666
		c-1.242-2.449-2.95-4.985-5.124-7.608C96.573,52.541,96.003,51.955,95.417,51.402z"/>
	<path fill="#FFFFFF" d="M111.496,8.185h28.777v0.104c-1.795,0.414-3.778,2.019-5.952,4.813c-2.622,3.623-4.296,7.505-5.021,11.646
		c-0.276,1.656-0.414,3.589-0.414,5.797v70.339c0,4.658,1.725,8.644,5.176,11.956c1.863,1.691,3.83,2.864,5.9,3.52
		c1.725,0.553,3.364,0.828,4.917,0.828h0.569c3.691,0,7.125-1.276,10.3-3.83c1.553-1.483,2.433-2.484,2.64-3.002
		c2.035-2.863,3.054-5.917,3.054-9.161V48.659c0-4.037,0-9.506,0-16.407c0-2.001,0.207-4.417,0.621-7.246
		c0.448-1.897,0.828-3.174,1.139-3.83c1.656-4.52,5.003-8.074,10.041-10.662c1.173-0.586,2.397-1.069,3.675-1.449
		c1.828-0.586,4.537-0.88,8.126-0.88h1.397c3.277,0,6.607,0.949,9.989,2.847c1.242,0.656,2.708,1.76,4.399,3.313
		c1.967,2.14,3.243,3.917,3.83,5.331c0.689,1.242,1.225,2.554,1.604,3.934c0.518,1.863,0.776,3.727,0.776,5.59v0.518
		c0,4.865-1.708,9.352-5.124,13.457c-1.553,1.622-2.709,2.675-3.468,3.157c-3.762,2.691-7.902,4.037-12.422,4.037h-19.771v50.878
		c0,4.762-1.639,9.179-4.917,13.25c-1.622,1.76-2.743,2.813-3.364,3.157c-3.865,2.898-8.04,4.348-12.525,4.348h-0.518
		c-4.9,0-9.402-1.69-13.509-5.072c-1.587-1.414-2.571-2.433-2.95-3.054c-1.415-1.932-2.381-3.605-2.898-5.021
		c-0.76-2.07-1.139-3.364-1.139-3.882c-0.242-0.793-0.362-2.863-0.362-6.211V50.367h-11.49c-6.798,0-12.388-2.536-16.77-7.608
		C92.604,38.757,91,34.409,91,29.716v-0.518c0-4.727,1.639-9.161,4.917-13.302c1.518-1.725,2.743-2.916,3.675-3.571
		c1.518-1.069,2.847-1.829,3.985-2.277C106.406,8.806,109.046,8.185,111.496,8.185z M95.813,29.25v0.466
		c0,3.485,1.225,6.815,3.675,9.989c3.416,3.899,7.729,5.849,12.939,5.849h11.646v-4.503h-11.646c-4.417,0-7.85-1.846-10.3-5.538
		c-1.208-1.932-1.812-3.968-1.812-6.107c0-3.52,1.432-6.573,4.296-9.161c2.243-1.794,4.779-2.691,7.608-2.691h15.424
		c0.793-1.276,1.777-2.553,2.95-3.83l0.673-0.725h-19.771c-2.416,0-4.952,0.759-7.608,2.277c-3.244,1.967-5.556,4.693-6.936,8.178
		C96.193,25.386,95.813,27.318,95.813,29.25z M105.182,29.405c0,2.416,1.087,4.365,3.261,5.849c1.139,0.656,2.415,0.983,3.83,0.983
		h11.801v-4.555h-11.594c-1.139,0-1.933-0.586-2.381-1.76c-0.035-0.172-0.052-0.328-0.052-0.466v-0.311
		c0-0.932,0.552-1.656,1.656-2.174c0.311-0.069,0.569-0.104,0.776-0.104h11.801c0-0.621,0.327-2.053,0.983-4.296
		c0.034,0,0.052-0.069,0.052-0.207h-13.198c-2.484,0-4.486,1.173-6.004,3.52C105.492,27.059,105.182,28.232,105.182,29.405z
		 M150.056,8.185v0.104c-0.932,0.173-2.14,0.897-3.623,2.174c-1.346,1.277-2.312,2.329-2.898,3.157
		c-0.966,1.38-1.726,2.605-2.277,3.675c-2.001,4.037-3.002,8.005-3.002,11.904v71.943c0,1.76,0.725,3.364,2.174,4.813
		c1.415,1.242,2.984,1.863,4.71,1.863h0.052c2.415,0,4.364-1.069,5.849-3.209c0.725-1.104,1.087-2.415,1.087-3.934V29.25
		c0-4.278,1.535-8.557,4.606-12.836c2.346-2.898,4.572-4.934,6.677-6.107c0.794-0.552,1.846-1.069,3.157-1.553
		c1.207-0.311,2.035-0.466,2.484-0.466V8.34c-0.863,0.173-2.002,0.811-3.416,1.915c-1.346,1.173-2.363,2.243-3.054,3.209
		c-1.208,1.587-2.088,2.968-2.64,4.141c-2.002,3.899-3.002,7.798-3.002,11.697v71.322c0,4.244-1.76,7.608-5.279,10.093
		c-2.002,1.312-4.192,1.967-6.573,1.967c-3.45,0-6.452-1.432-9.006-4.296c-0.897-1.173-1.483-2.156-1.76-2.95
		c-0.276-0.621-0.518-1.397-0.725-2.329c-0.104-0.759-0.155-1.915-0.155-3.468V29.664v-0.052v-0.052v-0.207v-0.207
		c0-4.037,1.414-8.178,4.244-12.422c0.689-0.966,1.639-2.087,2.847-3.364c1.967-1.829,3.605-3.054,4.917-3.675
		C147.45,8.685,148.986,8.185,150.056,8.185z M159.424,8.185v0.104c-0.932,0.138-2.191,0.88-3.778,2.226
		c-1.519,1.449-2.433,2.45-2.743,3.002c-1.104,1.449-2.088,3.088-2.95,4.917c-1.553,3.623-2.329,7.143-2.329,10.559v71.374
		c0,1.277-0.569,2.122-1.708,2.536c-0.241,0.035-0.483,0.052-0.725,0.052h-0.052c-1.07,0-1.846-0.569-2.329-1.708
		c0-0.207,0-0.396,0-0.569V28.991c0-4.658,1.708-9.195,5.124-13.612c1.656-1.863,2.967-3.157,3.934-3.882
		c2.588-1.897,4.83-2.95,6.729-3.157C158.803,8.271,159.078,8.219,159.424,8.185z M171.328,17.553h14.492
		c4.002,0,7.264,1.726,9.782,5.176c1.415,2.105,2.122,4.348,2.122,6.729c0,3.451-1.449,6.436-4.348,8.954
		c-2.209,1.76-4.797,2.64-7.764,2.64h-19.357v4.503h19.927c3.657,0,7.056-1.225,10.196-3.675c1.553-1.414,2.536-2.501,2.95-3.261
		c1.933-2.829,2.898-5.814,2.898-8.954V29.25c0-3.727-1.26-7.16-3.778-10.3c-1.104-1.276-2.122-2.243-3.054-2.898
		c-2.968-2.036-6.004-3.054-9.109-3.054h-2.226c-4.797,0-8.454,1.053-10.973,3.157C172.674,16.397,172.087,16.863,171.328,17.553z
		 M168.067,22.366c-0.38,0.863-0.759,2.14-1.139,3.83c0,0.069-0.034,0.293-0.104,0.673h18.736c1.139,0,1.933,0.604,2.381,1.812
		c0.034,0.173,0.052,0.328,0.052,0.466v0.311c0,0.794-0.466,1.467-1.397,2.019c-0.311,0.138-0.655,0.207-1.035,0.207h-19.254
		c0,1.519,0,2.605,0,3.261v0.259c0,0.207-0.018,0.553-0.052,1.035h19.513c2.588,0,4.589-1.035,6.004-3.105
		c0.725-1.139,1.087-2.381,1.087-3.727c0-2.243-0.983-4.158-2.95-5.745c-1.242-0.862-2.571-1.294-3.985-1.294H168.067z"/>
</g>
<g>
	<g>
		<path fill="#FFFFFF" d="M151.867,11.497c-0.967,0.725-2.277,2.019-3.934,3.882c-3.416,4.417-5.124,8.954-5.124,13.612v71.685
			c0,0.173,0,0.362,0,0.569c0.483,1.139,1.259,1.708,2.329,1.708h0.052c0.241,0,0.483-0.017,0.725-0.052
			c1.139-0.414,1.708-1.259,1.708-2.536V28.991c0-3.416,0.776-6.936,2.329-10.559c0.862-1.829,1.846-3.468,2.95-4.917
			c0.311-0.552,1.225-1.553,2.743-3.002c1.587-1.346,2.847-2.087,3.778-2.226V8.185c-0.346,0.035-0.621,0.086-0.828,0.155
			C156.697,8.547,154.455,9.6,151.867,11.497z"/>
		<path fill="#FFFFFF" d="M111.703,26.973c-1.104,0.518-1.656,1.242-1.656,2.174v0.311c0,0.138,0.017,0.293,0.052,0.466
			c0.448,1.173,1.242,1.76,2.381,1.76h11.594v0.015c0.016-0.001,0.033-0.001,0.049-0.002v-2.704c0-0.71,0.054-1.417,0.133-2.122
			h-11.775C112.272,26.869,112.014,26.904,111.703,26.973z"/>
		<path fill="#FFFFFF" d="M187.942,28.681c-0.448-1.208-1.242-1.812-2.381-1.812c0,0-13.591-0.024-18.02-0.032
			c-0.2,0-0.382,0.017-0.541,0.026c-0.042,0.002-0.089-0.008-0.128-0.005c-0.246,1.394-0.375,2.772-0.375,4.133v0.691h0.105h18.958
			c0.38,0,0.725-0.069,1.035-0.207c0.932-0.552,1.397-1.225,1.397-2.019v-0.311C187.994,29.009,187.977,28.854,187.942,28.681z"/>
	</g>
	<g>
		<path fill="#FFFFFF" d="M31.91,26.248c1,0,1.742,0.552,2.226,1.656c0.069,0.242,0.104,0.432,0.104,0.569v71.426
			c0,3.451,0.345,6.229,1.035,8.333c0.932,3.244,2.57,6.35,4.917,9.316c1.69,1.795,2.984,2.898,3.882,3.313
			c0.828,0.483,1.38,0.725,1.656,0.725v0.052c-1.277,0-2.985-0.586-5.124-1.76c-0.897-0.482-2.053-1.328-3.468-2.536
			c-1.622-1.553-2.726-2.76-3.313-3.623c-2.83-4.037-4.244-8.074-4.244-12.111V28.474c0-0.828,0.483-1.483,1.449-1.967
			C31.203,26.403,31.496,26.317,31.91,26.248z"/>
		<g>
			<path fill="#FFFFFF" d="M84.134,30.026c-0.483-1-1.484-2.415-3.002-4.244c-5.383-5.797-11.939-8.695-19.668-8.695H48.835
				c0,0,2.47,4.911,2.381,4.658h10.662c4.278,0,8.281,1.277,12.008,3.83c0.897,0.587,2.07,1.622,3.52,3.105
				c3.657,4.175,5.486,8.868,5.486,14.078v0.155c0,4.313-1.312,8.229-3.934,11.749c-0.483,0.725-1.519,1.812-3.105,3.261
				c-4.072,3.175-8.661,4.762-13.768,4.762h-9.679v4.658h9.42c4.969,0,9.558-1.207,13.768-3.623
				c1.311-0.689,2.847-1.846,4.606-3.468c0.586-0.552,1.173-1.155,1.76-1.812c3.727-4.589,5.59-9.765,5.59-15.527
				C87.55,38.256,86.411,33.96,84.134,30.026z"/>
			<path fill="#FFFFFF" d="M99.609,66.205c-1.346-3.554-3.313-6.832-5.9-9.834c0.138-0.414-2.433,4.451-2.433,4.451
				c3.864,5.211,5.797,10.973,5.797,17.287c0,7.35-2.502,13.992-7.505,19.927c-6.246,6.729-13.889,10.093-22.929,10.093H54.684
				c-0.069,0,3.569,5.568,2.743,4.658h8.229c3.174,0,5.676-0.189,7.505-0.569c2.001-0.379,3.571-0.759,4.71-1.139
				c2.139-0.759,4.106-1.604,5.9-2.536c1.587-0.932,3.174-2.001,4.762-3.209c1.656-1.242,3.537-3.105,5.642-5.59
				c5.038-6.521,7.557-13.732,7.557-21.635C101.731,74.072,101.024,70.104,99.609,66.205z"/>
		</g>
	</g>
</g>
</svg>
