<?xml version="1.0" encoding="utf-8"?>
<!-- Generator: Adobe Illustrator 16.0.0, SVG Export Plug-In . SVG Version: 6.00 Build 0)  -->
<!DOCTYPE svg PUBLIC "-//W3C//DTD SVG 1.1//EN" "http://www.w3.org/Graphics/SVG/1.1/DTD/svg11.dtd">
<svg version="1.1" id="Layer_1" xmlns="http://www.w3.org/2000/svg" xmlns:xlink="http://www.w3.org/1999/xlink" x="0px" y="0px"
	 width="92.996px" height="42.263px" viewBox="0 0 92.996 42.263" enable-background="new 0 0 92.996 42.263" xml:space="preserve">
<path fill="#999999" d="M7.687,20.181l1.55,2.153l-1.899,0.56l4.482,5.339c0,0-0.689,1.162-0.172,1.636
	c0.517,0.474,1.119,0.517,2.109,0.409c0.086,0.452,0.84,3.875,0.84,3.875l1.808-0.345c0,0,0.495-0.086,1.528-1.184
	s2.777-2.971,2.777-2.971s10.699-1.658,12.572-2.046c1.873-0.388,8.396-1.872,8.396-1.872l5.533-0.539L46.63,25.8l-0.28,3.078
	l0.861-0.431l-5.985,7.911l1.065,0.904l2.81-2.163l0.678,0.129l2.615-2.228l2.067-0.308v0.259c0,0,3.084-0.404,3.52-0.855
	c0.097-0.21,0.275-1.793-0.371-2.406c-0.226-0.016-0.904,0.129-0.904,0.129l2.513-2.384l1.701-0.237v0.28
	c0,0,3.294-0.774,3.746-1.033c0-0.549-0.049-2.147-0.468-2.551c-0.274,0-1.082-0.017-1.082-0.017l2.389-2.498l-0.474-0.812
	c0,0,4.952-2.304,5.317-2.626c0.366-0.323,15.772-4.543,17.574-9.451c0-0.581,0.138-0.872-2.914-1.372
	c-1.082-0.097-3.057-0.394-3.638-0.501c-0.581-0.107-2.023-0.56-5.683,0.84c-0.409,0.107-12.185,3.423-15.478,5.102
	c-0.097-0.29-0.323-1.081-0.323-1.081s-5.403,0.995-5.791,0.995c-0.387,0-6.975-2.023-7.083-2.152
	c-0.107-0.129,0.151-2.411-1.141-2.152c-1.292,0.258-3.983,0.904-4.779,0.753c-0.431-0.237-0.759-0.624-0.759-0.624L25.103,4.337
	l-0.021,0.258l-1.453-0.431L22.067,4.11c0,0-2.454-1.065-4.563-0.474c0.301,0.334,0.495,0.937,5.984,3.821
	c5.49,2.885,7.836,4.154,7.836,4.154l-1.098,0.861l2.282,1.271l-0.205,0.323l1.034,0.043l3.296,1.752l-0.146,0.443l0.888-0.186
	l0.535,0.293l1.55-0.796l0.99,0.753l0.796-0.043l-2.239,1.594l0.517,0.624l-14.38,4.833c0,0-0.097,0.354-1.582-0.227
	c-1.486-0.581-10.915-3.939-10.915-3.939s-0.743-0.452-1.809-0.064C9.775,19.535,7.687,20.181,7.687,20.181z"/>
</svg>
